{"glyphs":{"0":{"ha":791,"x_min":60,"x_max":731,"o":"m 60 509 q 395 1017 60 1017 q 731 509 731 1017 q 395 0 731 0 q 60 509 60 0 m 629 509 q 395 916 629 916 q 161 509 161 916 q 395 102 161 102 q 629 509 629 102 z "},"1":{"ha":646,"x_min":153,"x_max":533,"o":"m 292 795 l 153 795 l 153 859 q 317 1017 297 859 l 394 1017 l 394 102 l 533 102 l 533 0 l 153 0 l 153 102 l 292 102 l 292 795 z "},"2":{"ha":766,"x_min":74,"x_max":705,"o":"m 412 489 q 603 714 603 572 q 389 916 603 916 q 176 714 176 916 l 74 714 q 389 1017 74 1017 q 705 714 705 1017 q 446 391 705 503 l 316 335 q 176 102 176 277 l 705 102 l 705 0 l 74 0 l 74 102 q 282 433 74 345 l 412 489 z "},"3":{"ha":775,"x_min":66,"x_max":696,"o":"m 381 584 q 574 750 574 584 q 381 916 574 916 q 188 750 188 916 l 86 750 q 381 1017 86 1017 q 676 751 676 1017 q 584 536 676 602 q 696 292 696 467 q 381 0 696 0 q 66 294 66 0 l 168 294 q 381 102 168 102 q 595 294 595 102 q 381 485 595 485 l 328 485 l 328 584 l 381 584 z "},"4":{"ha":740,"x_min":27,"x_max":705,"o":"m 473 835 l 150 352 l 473 352 l 473 835 m 473 1017 l 575 1017 l 575 352 l 705 352 l 705 250 l 575 250 l 575 0 l 473 0 l 473 250 l 27 250 l 27 352 l 473 1017 z "},"5":{"ha":777,"x_min":84,"x_max":705,"o":"m 705 339 q 408 0 705 0 q 84 269 118 0 l 186 269 q 408 102 220 102 q 603 339 603 102 q 415 576 603 576 q 220 490 278 576 l 121 490 l 169 1017 l 657 1017 l 657 916 l 260 916 l 235 644 q 415 678 308 678 q 705 339 705 678 z "},"6":{"ha":734,"x_min":58,"x_max":688,"o":"m 165 389 q 373 102 194 102 q 587 322 587 102 q 373 543 587 543 q 165 389 195 543 m 373 0 q 58 509 58 0 q 407 1017 58 1017 q 688 779 688 1017 l 587 779 q 407 916 587 916 q 162 586 184 916 q 373 644 239 644 q 688 322 688 644 q 373 0 688 0 z "},"7":{"ha":748,"x_min":67,"x_max":698,"o":"m 698 916 l 336 0 l 227 0 l 589 916 l 67 916 l 67 1017 l 698 1017 l 698 916 z "},"8":{"ha":731,"x_min":50,"x_max":681,"o":"m 366 916 q 172 746 172 916 q 366 576 172 576 q 559 746 559 576 q 366 916 559 916 m 366 475 q 152 288 152 475 q 366 102 152 102 q 579 288 579 102 q 366 475 579 475 m 161 529 q 71 746 71 595 q 366 1017 71 1017 q 661 746 661 1017 q 570 529 661 595 q 681 288 681 459 q 366 0 681 0 q 50 288 50 0 q 161 529 50 459 z "},"9":{"ha":734,"x_min":45,"x_max":676,"o":"m 569 629 q 361 916 540 916 q 147 695 147 916 q 361 475 147 475 q 569 629 539 475 m 361 1017 q 676 509 676 1017 q 327 0 676 0 q 45 239 45 0 l 147 239 q 327 102 147 102 q 572 431 549 102 q 361 373 495 373 q 45 695 45 373 q 361 1017 45 1017 z "}," ":{"ha":386,"x_min":0,"x_max":0,"o":""},"!":{"ha":591,"x_min":305,"x_max":422,"o":"m 415 1013 l 415 543 l 388 233 l 340 233 l 313 543 l 313 1013 l 415 1013 m 422 144 l 422 0 l 305 0 l 305 144 l 422 144 z "},"\"":{"ha":493,"x_min":72,"x_max":423,"o":"m 72 985 l 201 985 l 201 831 l 163 644 l 109 644 l 72 831 l 72 985 m 294 985 l 423 985 l 423 831 l 386 644 l 332 644 l 294 831 l 294 985 z "},"#":{"ha":772,"x_min":19,"x_max":752,"o":"m 673 968 l 623 696 l 752 696 l 752 602 l 605 602 l 562 359 l 708 359 l 708 265 l 545 265 l 491 -27 l 386 -27 l 438 265 l 267 265 l 212 -27 l 106 -27 l 159 265 l 19 265 l 19 359 l 177 359 l 220 602 l 71 602 l 71 696 l 239 696 l 288 968 l 394 968 l 344 696 l 517 696 l 566 968 l 673 968 m 500 602 l 328 602 l 283 359 l 456 359 l 500 602 z "},"$":{"ha":772,"x_min":47,"x_max":722,"o":"m 340 1069 l 422 1069 l 422 994 q 662 852 597 982 q 691 734 688 800 l 691 721 l 582 721 q 501 875 581 828 q 440 896 473 890 q 422 897 431 897 l 422 551 q 604 485 561 509 q 722 271 722 418 q 627 41 722 126 q 594 17 612 28 q 422 -32 526 -23 l 422 -175 l 340 -175 l 340 -32 q 66 144 126 -18 q 47 264 47 199 q 48 289 47 277 l 158 289 q 187 153 168 186 q 193 143 190 149 q 340 64 241 77 l 340 441 q 165 514 211 481 q 66 717 66 585 q 260 978 66 920 q 340 994 297 989 l 340 1069 m 340 562 l 340 896 q 183 772 207 878 q 179 730 179 753 q 340 562 179 606 m 422 429 l 422 64 q 549 115 507 74 q 608 254 608 171 q 543 380 608 339 q 422 429 503 406 z "},"%":{"ha":1234,"x_min":40,"x_max":1193,"o":"m 276 951 q 464 860 393 951 l 489 821 q 513 711 513 770 q 426 530 513 602 q 277 476 361 476 q 93 564 165 476 q 40 714 40 631 q 127 899 40 827 q 276 951 193 951 m 276 854 q 159 790 201 854 l 143 758 q 136 714 136 736 q 198 597 136 640 q 277 574 235 574 q 394 636 353 574 q 418 713 418 671 q 351 833 418 791 q 276 854 318 854 m 846 985 l 937 985 l 389 -27 l 297 -27 l 846 985 m 956 447 q 1144 355 1074 447 q 1193 208 1193 292 q 1105 28 1193 98 q 957 -26 1040 -26 q 772 61 844 -26 q 719 211 719 127 q 808 395 719 323 q 956 447 873 447 m 956 350 q 839 288 880 350 q 815 211 815 253 q 880 93 815 135 q 957 71 915 71 q 1074 134 1031 71 q 1097 208 1097 168 q 1030 329 1097 288 l 998 343 q 956 350 977 350 z "},"&":{"ha":926,"x_min":72,"x_max":884,"o":"m 684 464 l 795 464 q 715 210 795 334 l 884 0 l 733 0 l 647 109 q 540 18 579 41 q 357 -32 462 -32 q 118 82 195 -32 q 72 244 72 150 q 144 431 72 357 q 297 541 194 481 q 187 729 199 663 q 184 766 184 747 q 275 939 184 873 q 422 985 338 985 q 611 893 547 985 l 631 854 q 647 791 644 825 q 648 766 648 779 q 572 603 648 671 q 456 525 532 567 l 642 298 q 684 458 684 374 l 684 464 m 395 599 q 529 721 508 669 q 538 770 538 742 q 476 873 538 842 q 418 888 450 888 q 307 818 334 888 q 298 768 298 796 q 333 673 298 722 l 395 599 m 581 191 l 358 468 q 199 315 227 385 q 189 254 189 288 q 264 111 189 164 q 370 77 312 77 q 558 167 464 77 q 581 191 569 178 z "},"'":{"ha":265,"x_min":66,"x_max":197,"o":"m 66 985 l 197 985 l 197 831 l 159 644 l 104 644 l 66 831 l 66 985 z "},"(":{"ha":777,"x_min":170,"x_max":472,"o":"m 396 1013 l 472 1013 q 283 416 300 734 q 282 359 282 387 q 452 -259 282 36 q 472 -294 461 -277 l 396 -294 q 188 178 239 -89 q 170 359 170 272 q 298 857 170 608 q 396 1013 342 942 z "},")":{"ha":777,"x_min":305,"x_max":608,"o":"m 382 -294 l 305 -294 q 494 301 477 -16 q 496 358 496 330 q 326 978 496 682 q 305 1013 316 996 l 382 1013 q 590 541 538 807 q 608 358 608 446 q 479 -138 608 110 q 382 -294 436 -223 z "},"*":{"ha":896,"x_min":305,"x_max":726,"o":"m 472 1013 l 559 1013 l 553 857 l 700 909 l 726 828 l 576 786 l 673 663 l 602 612 l 516 742 l 429 612 l 359 663 l 455 786 l 305 828 l 332 909 l 479 857 l 472 1013 z "},"+":{"ha":811,"x_min":69,"x_max":741,"o":"m 741 371 l 741 273 l 454 273 l 454 -14 l 357 -14 l 357 273 l 69 273 l 69 371 l 357 371 l 357 659 l 454 659 l 454 371 l 741 371 z "},",":{"ha":386,"x_min":121,"x_max":267,"o":"m 121 144 l 267 144 l 267 -22 q 121 -204 267 -204 l 121 -151 q 195 -105 180 -149 q 204 -24 204 -79 l 204 0 l 121 0 l 121 144 z "},"-":{"ha":462,"x_min":64,"x_max":394,"o":"m 394 433 l 394 334 l 64 334 l 64 433 l 394 433 z "},".":{"ha":386,"x_min":121,"x_max":265,"o":"m 265 144 l 265 0 l 121 0 l 121 144 l 265 144 z "},"/":{"ha":386,"x_min":-11,"x_max":395,"o":"m 318 1013 l 395 1013 l 66 -27 l -11 -27 l 318 1013 z "},":":{"ha":386,"x_min":153,"x_max":297,"o":"m 297 144 l 297 0 l 153 0 l 153 144 l 297 144 m 297 728 l 297 583 l 153 583 l 153 728 l 297 728 z "},";":{"ha":386,"x_min":153,"x_max":298,"o":"m 298 728 l 298 583 l 154 583 l 154 728 l 298 728 m 153 144 l 298 144 l 298 -22 q 153 -204 298 -204 l 153 -151 q 227 -105 212 -149 q 236 -24 236 -79 l 236 0 l 153 0 l 153 144 z "},"<":{"ha":811,"x_min":62,"x_max":741,"o":"m 62 275 l 62 371 l 741 659 l 741 549 l 195 325 l 741 97 l 741 -12 l 62 275 z "},"=":{"ha":811,"x_min":69,"x_max":741,"o":"m 741 490 l 741 393 l 69 393 l 69 490 l 741 490 m 741 252 l 741 154 l 69 154 l 69 252 l 741 252 z "},">":{"ha":811,"x_min":69,"x_max":748,"o":"m 748 371 l 748 275 l 69 -12 l 69 97 l 616 321 l 69 549 l 69 659 l 748 371 z "},"?":{"ha":1075,"x_min":305,"x_max":905,"o":"m 656 277 l 532 277 l 532 353 q 570 473 532 422 q 643 550 594 504 q 676 579 652 558 q 780 762 779 671 q 695 901 780 860 l 652 916 q 602 921 629 921 q 447 840 488 921 q 423 704 423 793 l 305 704 q 368 931 305 850 q 555 1026 431 1012 q 610 1029 582 1029 q 862 914 785 1029 l 884 872 q 905 762 905 822 q 834 583 905 665 q 766 514 808 551 q 665 396 679 433 q 656 342 656 375 l 656 277 m 656 144 l 656 0 l 532 0 l 532 144 l 656 144 z "},"@":{"ha":1409,"x_min":47,"x_max":1320,"o":"m 923 696 l 1038 696 l 913 307 q 897 237 897 258 q 937 182 897 200 q 966 176 951 176 q 1128 277 1055 176 q 1200 496 1200 375 q 1065 786 1200 663 q 732 922 927 914 l 711 922 q 349 781 507 922 l 302 733 q 165 379 165 576 q 311 49 165 183 q 686 -90 460 -90 q 954 -45 795 -90 l 993 -138 q 679 -197 837 -197 q 247 -48 429 -197 q 51 294 77 90 q 47 358 47 326 q 179 753 47 572 q 267 850 218 807 q 626 1021 416 986 q 729 1029 677 1029 q 1130 889 960 1029 q 1316 571 1291 758 q 1320 513 1320 542 q 1201 203 1320 345 q 943 79 1095 79 q 790 186 809 79 q 593 86 699 86 q 414 182 479 86 q 366 340 366 250 q 476 608 366 492 q 723 725 583 724 q 892 604 840 725 l 923 696 m 715 636 q 554 538 623 636 q 491 339 491 450 q 557 199 491 245 q 629 175 590 175 q 770 265 709 175 q 838 449 817 332 q 846 503 844 479 l 846 512 q 789 616 846 581 q 715 636 755 636 z "},"ក":{"ha":1221,"x_min":142,"x_max":1221,"o":"m 203 949 q 339 1017 203 1017 l 1085 1017 q 1221 949 1221 1017 q 1085 882 1221 882 l 408 882 q 365 841 365 882 q 394 746 365 807 q 257 833 310 785 q 203 949 203 882 m 279 34 q 208 0 265 0 q 142 34 149 0 l 235 559 q 543 746 267 746 q 1109 380 1109 746 q 1100 280 1109 333 l 1057 34 q 987 0 1042 0 q 917 39 932 0 q 909 73 909 56 q 920 111 909 92 q 946 186 939 144 l 966 305 q 972 364 972 336 q 543 610 972 610 q 368 534 381 610 l 279 34 z "},"ខ":{"ha":1221,"x_min":179,"x_max":1171,"o":"m 396 718 q 433 673 398 673 q 484 687 454 673 q 542 583 542 643 q 540 558 542 570 q 430 490 527 490 q 403 492 417 490 q 259 669 259 508 q 266 744 259 703 q 756 1017 318 1017 q 1171 712 1171 1017 q 1161 613 1171 666 q 316 244 1135 334 q 315 233 315 238 q 610 136 315 136 q 964 279 939 136 q 1017 312 977 312 q 1039 310 1027 312 q 1098 254 1097 300 q 610 0 1053 0 q 179 222 179 0 q 183 268 179 243 q 275 375 199 357 q 1025 628 1017 462 q 1030 688 1030 660 q 756 882 1030 882 q 396 718 432 882 z "},"គ":{"ha":1221,"x_min":153,"x_max":1221,"o":"m 203 949 q 339 1017 203 1017 l 1085 1017 q 1221 949 1221 1017 q 1085 882 1221 882 l 408 882 q 365 841 365 882 q 394 746 365 807 q 257 833 310 785 q 203 949 203 882 m 713 189 q 663 167 690 167 q 610 186 637 167 q 536 210 574 210 q 485 199 511 210 q 322 43 418 174 q 228 0 265 0 q 166 17 190 0 q 153 64 153 26 q 165 165 153 101 l 189 297 l 235 559 q 543 746 267 746 q 1109 380 1109 746 q 1100 280 1109 333 l 1057 34 q 987 0 1042 0 q 917 39 932 0 q 909 73 909 56 q 920 111 909 92 q 946 186 939 144 l 966 305 q 972 364 972 336 q 543 610 972 610 q 368 534 381 610 l 323 284 l 302 159 q 545 339 412 339 q 719 284 677 339 q 738 235 738 258 q 713 189 738 210 z "},"ឃ":{"ha":1831,"x_min":136,"x_max":1831,"o":"m 509 834 q 440 647 509 747 q 330 322 371 548 q 327 285 327 302 q 576 136 327 136 q 942 409 894 136 q 971 648 971 576 q 960 701 971 693 l 808 796 q 766 873 766 822 q 775 926 766 897 q 907 1017 803 1017 l 1085 1017 q 1221 949 1221 1017 q 1085 882 1221 882 l 900 882 l 1019 810 q 1098 596 1098 763 q 1077 393 1098 510 q 993 177 1055 264 q 1187 136 1055 136 q 1552 409 1504 136 q 1581 648 1581 576 q 1570 701 1581 693 l 1418 796 q 1376 873 1376 822 q 1385 926 1376 897 q 1518 1017 1413 1017 l 1695 1017 q 1831 949 1831 1017 q 1695 882 1831 882 l 1510 882 l 1630 810 q 1708 596 1708 763 q 1687 393 1708 510 q 1187 0 1618 0 q 885 75 982 0 q 576 0 766 0 q 189 269 189 0 q 197 350 189 307 q 307 679 235 580 q 374 825 374 770 q 373 834 374 830 q 307 882 373 882 q 271 848 271 882 q 349 814 271 814 q 281 678 346 732 q 136 848 136 678 q 317 1017 136 1017 q 509 834 509 1017 z "},"ង":{"ha":1221,"x_min":146,"x_max":1199,"o":"m 926 807 q 978 804 955 804 q 1060 836 1055 804 q 1061 845 1061 841 q 1004 882 1061 882 q 928 825 941 882 q 926 812 926 819 l 926 807 m 842 688 l 718 703 q 305 941 305 753 q 309 975 305 957 l 323 1057 q 323 1067 323 1062 q 259 1107 323 1107 q 186 1175 186 1107 q 259 1242 186 1242 q 464 1097 464 1242 q 456 1035 464 1069 l 443 957 q 442 949 442 953 q 740 831 442 870 l 793 824 q 798 865 793 844 q 1004 1017 832 1017 q 1199 863 1199 1017 q 1194 810 1199 839 q 1049 682 1175 704 q 1122 467 1122 616 q 1106 308 1122 397 q 867 0 1050 0 q 616 127 747 0 q 475 203 536 203 q 374 153 408 203 l 340 102 q 205 0 273 0 q 146 50 146 0 q 148 69 146 59 l 190 312 l 212 433 l 222 494 q 227 540 227 519 q 218 587 227 568 q 212 610 212 598 q 230 658 212 632 q 282 684 248 684 q 324 676 301 684 q 376 593 376 659 q 372 554 376 575 l 319 254 q 475 339 376 339 q 695 237 594 339 q 867 136 796 136 q 975 345 937 136 q 989 478 989 424 q 950 594 989 570 q 842 688 880 638 z "},"ច":{"ha":1221,"x_min":190,"x_max":1221,"o":"m 349 699 q 309 743 330 717 q 203 949 203 882 q 339 1017 203 1017 l 1085 1017 q 1221 949 1221 1017 q 1085 882 1221 882 l 408 882 q 384 865 384 882 q 510 705 384 828 q 481 668 495 687 q 330 320 362 505 q 328 288 328 303 q 610 136 328 136 q 966 303 937 136 q 977 404 977 363 q 943 492 977 478 q 909 500 924 500 q 865 476 882 500 q 853 445 853 458 q 901 408 853 418 q 967 353 967 401 q 966 341 967 347 q 914 300 960 300 q 861 309 892 300 q 734 440 734 351 q 767 543 734 486 q 907 618 821 618 q 997 602 948 618 q 1111 395 1111 562 q 1099 275 1111 341 q 610 0 1050 0 q 190 267 190 0 q 197 340 190 301 q 349 699 231 535 z "},"ឆ":{"ha":1221,"x_min":68,"x_max":1221,"o":"m 260 203 l 251 203 q 203 170 203 203 q 226 136 203 136 q 254 171 248 136 l 260 203 m 419 323 q 600 237 532 298 q 854 136 712 136 q 966 303 937 136 q 977 404 977 363 q 943 492 977 478 q 909 500 924 500 q 865 476 882 500 q 853 445 853 458 q 901 408 853 418 q 967 353 967 401 q 966 341 967 347 q 914 300 960 300 q 861 309 892 300 q 734 440 734 351 q 767 543 734 486 q 907 618 821 618 q 997 602 948 618 q 1111 395 1111 562 q 1099 275 1111 341 q 854 0 1050 0 q 507 140 658 0 q 396 191 469 175 l 388 146 q 226 0 362 0 q 68 170 68 0 q 251 339 68 339 q 284 338 268 339 l 348 701 q 309 743 330 717 q 203 949 203 882 q 339 1017 203 1017 l 1085 1017 q 1221 949 1221 1017 q 1085 882 1221 882 l 408 882 q 384 865 384 882 q 510 705 384 828 q 480 668 484 692 l 419 323 z "},"ជ":{"ha":1221,"x_min":146,"x_max":1221,"o":"m 349 692 l 481 668 q 330 320 362 505 l 319 254 q 475 339 376 339 q 695 237 594 339 q 867 136 796 136 q 975 345 937 136 l 991 437 q 1003 552 1003 505 q 994 617 1003 593 q 989 642 989 631 q 1029 691 989 674 q 1053 696 1041 696 q 1117 642 1090 696 q 1137 532 1137 600 q 1127 420 1137 483 l 1106 308 q 867 0 1050 0 q 616 127 747 0 q 475 203 536 203 q 374 153 408 203 l 340 102 q 205 0 273 0 q 146 50 146 0 q 148 69 146 59 l 197 340 q 349 692 231 535 m 507 687 q 283 799 363 717 q 203 949 203 882 q 407 1017 203 1017 q 621 983 509 1017 q 882 949 732 949 q 1085 1051 1085 949 q 1061 1121 1085 1098 q 1042 1166 1042 1139 q 1044 1182 1042 1173 q 1136 1221 1050 1221 q 1221 1051 1221 1221 q 882 814 1221 814 q 617 848 726 814 q 407 882 509 882 q 383 863 383 882 q 507 687 383 822 z "},"ឈ":{"ha":2398,"x_min":185,"x_max":2398,"o":"m 919 576 q 926 648 926 614 q 590 882 926 882 q 415 806 429 882 l 330 315 q 319 214 319 256 q 353 126 319 140 q 387 118 372 118 q 431 142 414 118 q 443 181 443 164 q 395 224 443 214 q 334 272 334 230 q 336 292 334 281 q 390 334 347 334 q 430 327 408 334 q 564 193 564 292 q 529 75 564 142 q 389 0 475 0 q 299 18 348 0 q 185 224 185 57 q 197 344 185 277 l 282 831 q 590 1017 315 1017 q 1063 665 1063 1017 q 1053 551 1063 612 l 1013 322 q 1008 278 1008 299 q 1211 136 1008 136 q 1509 409 1461 136 q 1538 648 1538 576 q 1527 701 1538 693 l 1375 796 q 1333 873 1333 822 q 1342 926 1333 897 q 1474 1017 1370 1017 l 1652 1017 q 1788 949 1788 1017 q 1652 882 1788 882 l 1467 882 l 1586 810 q 1665 596 1665 763 q 1644 393 1665 510 q 1560 177 1622 264 q 1754 136 1622 136 q 2119 409 2071 136 q 2148 648 2148 576 q 2137 701 2148 693 l 1985 796 q 1943 873 1943 822 q 1952 926 1943 897 q 2085 1017 1980 1017 l 2262 1017 q 2398 949 2398 1017 q 2262 882 2398 882 l 2077 882 l 2197 810 q 2275 596 2275 763 q 2254 393 2275 510 q 1754 0 2185 0 q 1452 75 1549 0 q 1211 0 1333 0 q 871 269 871 0 q 879 350 871 307 l 919 576 z "},"ញ":{"ha":1831,"x_min":180,"x_max":1733,"o":"m 1002 507 l 1017 588 l 1035 690 q 1040 744 1040 720 q 954 876 1040 844 q 930 880 942 880 q 787 690 853 880 q 703 650 769 650 q 638 707 638 650 l 638 718 q 544 882 638 882 q 404 735 430 882 l 330 315 q 319 214 319 256 q 353 126 319 140 q 387 118 372 118 q 431 142 414 118 q 443 181 443 164 q 395 224 443 214 q 334 272 334 230 q 336 292 334 281 q 390 334 347 334 q 430 327 408 334 q 564 193 564 292 q 529 75 564 142 q 389 0 475 0 q 299 18 348 0 q 185 224 185 57 q 197 344 185 277 l 271 760 q 544 1017 316 1017 q 733 882 679 1017 q 928 1017 817 1017 q 1001 1003 963 1017 q 1123 922 1080 975 q 1402 1017 1213 1017 q 1733 714 1733 1017 q 1721 585 1733 655 l 1624 34 q 1554 0 1609 0 q 1484 39 1499 0 q 1476 73 1476 56 q 1487 111 1476 92 q 1513 186 1506 144 l 1588 608 q 1597 696 1597 656 q 1402 882 1597 882 q 1181 735 1206 882 l 1147 547 l 1057 34 q 987 0 1042 0 q 917 39 932 0 q 909 73 909 56 q 920 111 909 92 q 946 186 939 144 l 1002 507 m 203 -336 q 180 -291 180 -315 q 207 -237 180 -266 q 529 -68 362 -68 q 899 -231 715 -68 q 1289 -305 982 -305 q 1448 -254 1442 -305 l 1448 -249 q 1356 -203 1448 -203 q 1275 -136 1275 -203 q 1356 -68 1275 -68 q 1589 -219 1589 -68 q 1586 -254 1589 -236 q 1289 -441 1557 -441 q 812 -322 947 -441 q 529 -203 677 -203 q 298 -335 439 -203 q 250 -357 274 -357 q 203 -336 227 -357 z "},"ដ":{"ha":1221,"x_min":146,"x_max":1221,"o":"m 349 692 l 481 668 q 330 320 362 505 l 319 254 q 475 339 376 339 q 695 237 594 339 q 867 136 796 136 q 975 345 937 136 l 991 437 q 1003 552 1003 505 q 994 617 1003 593 q 989 642 989 631 q 1029 691 989 674 q 1053 696 1041 696 q 1117 642 1090 696 q 1137 532 1137 600 q 1127 420 1137 483 l 1106 308 q 867 0 1050 0 q 616 127 747 0 q 475 203 536 203 q 374 153 408 203 l 340 102 q 205 0 273 0 q 146 50 146 0 q 148 69 146 59 l 197 340 q 349 692 231 535 m 534 892 q 705 882 598 882 q 1085 1051 1085 882 q 1061 1121 1085 1098 q 1042 1166 1042 1139 q 1044 1182 1042 1173 q 1136 1221 1050 1221 q 1221 1051 1221 1221 q 705 746 1221 746 q 298 908 298 746 q 300 932 298 920 q 414 1017 315 1017 q 543 980 511 1017 q 559 941 559 961 q 543 902 559 922 q 534 892 538 896 z "},"ឋ":{"ha":1221,"x_min":136,"x_max":1221,"o":"m 1077 393 q 576 0 1008 0 q 189 269 189 0 q 197 350 189 307 q 307 679 235 580 q 374 825 374 770 q 373 834 374 830 q 307 882 373 882 q 271 848 271 882 q 349 814 271 814 q 281 678 346 732 q 136 848 136 678 q 317 1017 136 1017 q 509 834 509 1017 q 440 647 509 747 q 330 322 371 548 q 327 285 327 302 q 576 136 327 136 q 942 409 894 136 q 971 648 971 576 q 960 701 971 693 l 808 796 q 766 873 766 822 q 775 926 766 897 q 900 1017 803 1017 q 992 996 939 1017 q 1052 980 1031 980 q 1065 982 1059 980 q 1085 1051 1085 990 q 1061 1121 1085 1098 q 1042 1166 1042 1139 q 1044 1182 1042 1173 q 1136 1221 1050 1221 q 1221 1051 1221 1221 q 1148 860 1221 895 q 1077 846 1120 846 q 900 882 1008 846 l 1019 810 q 1098 596 1098 763 q 1077 393 1098 510 z "},"ឌ":{"ha":1221,"x_min":179,"x_max":1177,"o":"m 1044 -34 q 975 -68 1030 -68 q 905 -29 920 -68 q 897 5 897 -12 q 908 43 897 24 q 610 0 793 0 q 179 222 179 0 q 183 268 179 243 q 275 375 199 357 q 1023 628 994 462 l 1035 690 q 1040 744 1040 720 q 954 876 1040 844 q 930 880 942 880 q 787 690 853 880 q 703 650 769 650 q 638 707 638 650 l 638 718 q 544 882 638 882 q 396 718 430 882 q 433 673 398 673 q 484 687 454 673 q 542 583 542 643 q 540 558 542 570 q 430 490 527 490 q 403 492 417 490 q 259 669 259 508 q 266 744 259 703 q 544 1017 316 1017 q 733 882 679 1017 q 928 1017 817 1017 q 1001 1003 963 1017 q 1177 753 1177 939 q 1168 668 1177 713 l 1158 613 q 316 244 1109 334 q 315 233 315 238 q 610 136 315 136 q 964 279 939 136 q 1017 312 977 312 q 1039 310 1027 312 q 1098 254 1097 300 l 1044 -34 z "},"ឍ":{"ha":1831,"x_min":185,"x_max":1831,"o":"m 948 203 l 939 203 q 892 170 892 203 q 914 136 892 136 q 943 171 937 136 l 948 203 m 1035 690 q 1040 744 1040 720 q 954 876 1040 844 q 930 880 942 880 q 787 690 853 880 q 703 650 769 650 q 638 707 638 650 l 638 718 q 544 882 638 882 q 404 735 430 882 l 330 315 q 319 214 319 256 q 353 126 319 140 q 387 118 372 118 q 431 142 414 118 q 443 181 443 164 q 395 224 443 214 q 334 272 334 230 q 336 292 334 281 q 390 334 347 334 q 430 327 408 334 q 564 193 564 292 q 529 75 564 142 q 389 0 475 0 q 299 18 348 0 q 185 224 185 57 q 197 344 185 277 l 271 760 q 544 1017 316 1017 q 733 882 679 1017 q 928 1017 817 1017 q 1001 1003 963 1017 q 1177 753 1177 939 q 1168 668 1177 713 l 1107 323 q 1234 237 1186 298 q 1428 136 1339 136 q 1534 303 1504 136 l 1552 409 q 1581 648 1581 576 q 1570 701 1581 693 l 1418 796 q 1376 873 1376 822 q 1385 926 1376 897 q 1518 1017 1413 1017 l 1695 1017 q 1831 949 1831 1017 q 1695 882 1831 882 l 1510 882 l 1630 810 q 1708 596 1708 763 q 1687 393 1708 510 l 1667 275 q 1428 0 1618 0 q 1161 140 1285 0 q 1084 191 1124 175 l 1076 146 q 914 0 1050 0 q 756 170 756 0 q 939 339 756 339 q 972 338 956 339 l 1035 690 z "},"ណ":{"ha":2398,"x_min":185,"x_max":2294,"o":"m 865 576 q 872 656 872 620 q 590 882 872 882 q 415 806 429 882 l 330 315 q 319 214 319 256 q 353 126 319 140 q 387 118 372 118 q 431 142 414 118 q 443 181 443 164 q 395 224 443 214 q 334 272 334 230 q 336 292 334 281 q 390 334 347 334 q 430 327 408 334 q 564 193 564 292 q 529 75 564 142 q 389 0 475 0 q 299 18 348 0 q 185 224 185 57 q 197 344 185 277 l 282 831 q 590 1017 315 1017 q 1010 675 1010 1017 q 998 551 1010 618 l 958 320 l 946 254 q 1082 339 1004 339 q 1255 231 1181 339 q 1372 136 1322 136 q 1480 345 1442 136 l 1566 831 q 1853 1017 1598 1017 q 2294 671 2294 1017 q 2282 551 2294 616 l 2191 34 q 2122 0 2177 0 q 2051 39 2067 0 q 2044 73 2044 56 q 2055 111 2044 92 q 2081 186 2074 144 l 2148 576 q 2156 653 2156 618 q 1853 882 2156 882 q 1699 806 1712 882 l 1611 308 q 1372 0 1556 0 q 1162 148 1273 0 q 1082 203 1123 203 q 1002 153 1035 203 l 968 102 q 832 0 901 0 q 773 50 773 0 q 775 69 773 59 l 824 340 l 865 576 z "},"ត":{"ha":1221,"x_min":185,"x_max":1221,"o":"m 203 949 q 339 1017 203 1017 l 1085 1017 q 1221 949 1221 1017 q 1085 882 1221 882 l 408 882 q 365 841 365 882 q 394 746 365 807 q 257 833 310 785 q 203 949 203 882 m 235 559 q 543 746 267 746 q 1109 380 1109 746 q 1100 280 1109 333 l 1057 34 q 987 0 1042 0 q 917 39 932 0 q 909 73 909 56 q 920 111 909 92 q 946 186 939 144 l 966 305 q 972 364 972 336 q 543 610 972 610 q 368 534 381 610 l 330 315 q 319 214 319 256 q 353 126 319 140 q 387 118 372 118 q 431 142 414 118 q 443 181 443 164 q 395 224 443 214 q 334 272 334 230 q 336 292 334 281 q 390 334 347 334 q 430 327 408 334 q 564 193 564 292 q 529 75 564 142 q 389 0 475 0 q 299 18 348 0 q 185 224 185 57 q 197 344 185 277 l 235 559 z "},"ថ":{"ha":1221,"x_min":190,"x_max":1221,"o":"m 349 699 l 481 668 q 330 320 362 505 q 328 288 328 303 q 610 136 328 136 q 966 303 937 136 q 977 404 977 363 q 943 492 977 478 q 909 500 924 500 q 865 476 882 500 q 853 445 853 458 q 901 408 853 418 q 967 353 967 401 q 966 341 967 347 q 914 300 960 300 q 861 309 892 300 q 734 440 734 351 q 767 543 734 486 q 907 618 821 618 q 997 602 948 618 q 1111 395 1111 562 q 1099 275 1111 341 q 610 0 1050 0 q 190 267 190 0 q 197 340 190 301 q 349 699 231 535 m 507 687 q 283 799 363 717 q 203 949 203 882 q 407 1017 203 1017 q 621 983 509 1017 q 882 949 732 949 q 1085 1051 1085 949 q 1061 1121 1085 1098 q 1042 1166 1042 1139 q 1044 1182 1042 1173 q 1136 1221 1050 1221 q 1221 1051 1221 1221 q 882 814 1221 814 q 617 848 726 814 q 407 882 509 882 q 383 863 383 882 q 507 687 383 822 z "},"ទ":{"ha":1221,"x_min":256,"x_max":1187,"o":"m 924 463 q 998 493 995 465 l 998 494 q 970 511 998 511 q 927 482 935 511 q 924 463 925 473 m 763 349 l 656 359 q 256 653 256 408 q 261 713 256 682 q 746 1017 314 1017 q 1187 794 1187 1017 q 1183 749 1187 772 q 1128 709 1176 709 q 1107 711 1118 709 q 1048 760 1048 718 q 1049 771 1048 765 q 1050 783 1050 777 q 746 882 1050 882 q 394 692 427 882 q 392 666 392 678 q 678 488 392 526 l 787 477 l 794 522 q 970 647 817 647 q 1137 520 1131 647 q 1132 467 1137 496 q 901 339 1114 361 l 896 307 q 617 0 845 0 q 323 171 323 0 q 327 212 323 191 l 312 243 q 307 267 307 255 q 324 315 307 289 q 376 341 342 341 q 418 333 395 341 q 470 250 470 315 q 467 211 470 232 q 465 198 465 204 q 617 136 465 136 q 763 349 730 136 z "},"ធ":{"ha":1221,"x_min":146,"x_max":1221,"o":"m 349 699 q 309 743 330 717 q 203 949 203 882 q 339 1017 203 1017 l 1085 1017 q 1221 949 1221 1017 q 1085 882 1221 882 l 408 882 q 384 865 384 882 q 510 705 384 828 q 481 668 495 687 q 330 320 362 505 l 319 254 q 475 339 376 339 q 695 237 594 339 q 867 136 796 136 q 966 303 937 136 q 977 404 977 363 q 943 492 977 478 q 909 500 924 500 q 865 476 882 500 q 853 445 853 458 q 901 408 853 418 q 967 353 967 401 q 966 341 967 347 q 914 300 960 300 q 861 309 892 300 q 734 440 734 351 q 767 543 734 486 q 907 618 821 618 q 997 602 948 618 q 1111 395 1111 562 q 1099 275 1111 341 q 867 0 1050 0 q 616 127 747 0 q 475 203 536 203 q 374 153 408 203 l 340 102 q 205 0 273 0 q 146 50 146 0 q 148 69 146 59 l 197 340 q 349 699 231 535 z "},"ន":{"ha":1221,"x_min":68,"x_max":1187,"o":"m 260 203 l 251 203 q 203 170 203 203 q 226 136 203 136 q 254 171 248 136 l 260 203 m 656 461 q 270 730 270 505 q 275 781 270 755 q 746 1017 319 1017 q 1187 794 1187 1017 q 1183 749 1187 772 q 1017 610 1158 610 q 949 678 949 610 q 1017 746 949 746 q 1049 771 1045 746 q 1050 783 1050 777 q 746 882 1050 882 q 408 760 431 882 q 407 743 407 751 q 678 590 407 628 l 823 567 q 1105 332 1105 530 q 1099 275 1105 304 q 854 0 1050 0 q 507 140 658 0 q 396 191 469 175 l 388 146 q 226 0 362 0 q 68 170 68 0 q 251 339 68 339 q 284 338 268 339 l 296 404 q 357 460 306 460 q 374 459 365 460 q 431 404 431 450 q 430 386 431 395 l 419 323 q 600 237 532 298 q 854 136 712 136 q 966 303 937 136 q 968 323 968 314 q 804 439 968 416 l 656 461 z "},"ប":{"ha":1221,"x_min":136,"x_max":1221,"o":"m 330 322 q 327 285 327 302 q 576 136 327 136 q 942 409 894 136 q 971 648 971 576 q 960 701 971 693 l 808 796 q 766 873 766 822 q 775 926 766 897 q 907 1017 803 1017 l 1085 1017 q 1221 949 1221 1017 q 1085 882 1221 882 l 900 882 l 1019 810 q 1098 596 1098 763 q 1077 393 1098 510 q 576 0 1008 0 q 189 269 189 0 q 197 350 189 307 l 258 701 l 385 635 l 330 322 m 479 615 l 178 796 q 136 873 136 822 q 145 926 136 897 q 277 1017 173 1017 l 455 1017 q 591 949 591 1017 q 455 882 591 882 l 270 882 l 538 725 q 552 677 552 699 q 544 647 552 661 q 479 615 525 615 z "},"ផ":{"ha":1221,"x_min":146,"x_max":1221,"o":"m 283 799 q 243 840 283 799 q 203 949 203 882 q 407 1017 203 1017 q 621 983 509 1017 q 882 949 732 949 q 1085 1051 1085 949 q 1061 1121 1085 1098 q 1042 1166 1042 1139 q 1044 1182 1042 1173 q 1136 1221 1050 1221 q 1221 1051 1221 1221 q 882 814 1221 814 q 617 848 726 814 q 407 882 509 882 q 383 863 383 882 q 507 687 383 822 q 283 799 363 717 m 1099 275 q 867 0 1050 0 q 616 127 747 0 q 475 203 536 203 q 374 153 408 203 l 340 102 q 205 0 273 0 q 146 50 146 0 q 148 69 146 59 l 197 340 q 349 692 231 535 l 481 668 q 330 320 362 505 l 319 254 q 475 339 376 339 q 695 237 594 339 q 867 136 796 136 q 966 303 937 136 q 977 404 977 363 q 943 492 977 478 q 909 500 924 500 q 865 476 882 500 q 853 445 853 458 q 901 408 853 418 q 967 353 967 401 q 966 341 967 347 q 914 300 960 300 q 861 309 892 300 q 734 440 734 351 q 767 543 734 486 q 907 618 821 618 q 997 602 948 618 q 1111 395 1111 562 q 1099 275 1111 341 z "},"ព":{"ha":1221,"x_min":185,"x_max":1177,"o":"m 787 690 q 703 650 769 650 q 638 707 638 650 l 638 718 q 544 882 638 882 q 404 735 430 882 l 330 315 q 319 214 319 256 q 353 126 319 140 q 387 118 372 118 q 431 142 414 118 q 443 181 443 164 q 395 224 443 214 q 334 272 334 230 q 336 292 334 281 q 390 334 347 334 q 430 327 408 334 q 564 193 564 292 q 529 75 564 142 q 389 0 475 0 q 299 18 348 0 q 185 224 185 57 q 197 344 185 277 l 271 760 q 544 1017 316 1017 q 733 882 679 1017 q 928 1017 817 1017 q 1001 1003 963 1017 q 1177 753 1177 939 q 1168 668 1177 713 l 1057 34 q 987 0 1042 0 q 917 39 932 0 q 909 73 909 56 q 920 111 909 92 q 946 186 939 144 l 1035 690 q 1040 744 1040 720 q 954 876 1040 844 q 930 880 942 880 q 787 690 853 880 z "},"ភ":{"ha":1221,"x_min":68,"x_max":1221,"o":"m 260 203 l 251 203 q 203 170 203 203 q 226 136 203 136 q 254 171 248 136 l 260 203 m 277 839 q 240 860 277 839 q 203 949 203 882 q 339 1017 203 1017 l 1085 1017 q 1221 949 1221 1017 q 1085 882 1221 882 l 408 882 q 382 870 382 882 q 485 780 382 847 q 277 839 351 796 m 388 146 q 226 0 362 0 q 68 170 68 0 q 251 339 68 339 q 284 338 268 339 l 323 559 q 631 746 355 746 q 1111 393 1111 746 q 1100 280 1111 340 l 1057 34 q 987 0 1042 0 q 917 39 932 0 q 909 73 909 56 q 920 111 909 92 q 946 186 939 144 l 966 305 q 973 375 973 342 q 631 610 973 610 q 456 534 469 610 l 388 146 z "},"ម":{"ha":1221,"x_min":136,"x_max":1221,"o":"m 479 615 l 178 796 q 136 873 136 822 q 145 926 136 897 q 277 1017 173 1017 l 455 1017 q 591 949 591 1017 q 455 882 591 882 l 270 882 l 538 725 q 552 677 552 699 q 544 647 552 661 q 479 615 525 615 m 963 543 q 971 648 971 608 q 960 701 971 693 l 808 796 q 766 873 766 822 q 775 926 766 897 q 907 1017 803 1017 l 1085 1017 q 1221 949 1221 1017 q 1085 882 1221 882 l 900 882 l 1019 810 q 1098 596 1098 763 q 1077 393 1098 510 q 576 0 1008 0 q 189 269 189 0 q 197 350 189 307 l 258 701 l 385 635 l 330 322 q 327 285 327 302 q 576 136 327 136 q 941 407 892 136 l 509 407 q 407 475 407 407 q 509 543 407 543 l 963 543 z "},"យ":{"ha":1831,"x_min":189,"x_max":1831,"o":"m 993 177 q 1187 136 1055 136 q 1552 409 1504 136 q 1581 648 1581 576 q 1570 701 1581 693 l 1418 796 q 1376 873 1376 822 q 1385 926 1376 897 q 1518 1017 1413 1017 l 1695 1017 q 1831 949 1831 1017 q 1695 882 1831 882 l 1510 882 l 1630 810 q 1708 596 1708 763 q 1687 393 1708 510 q 1187 0 1618 0 q 885 75 982 0 q 576 0 766 0 q 189 269 189 0 q 197 350 189 307 l 270 763 q 475 1017 315 1017 q 644 878 644 1017 q 640 827 644 854 q 420 678 613 678 l 441 814 q 507 848 501 814 q 508 856 508 852 q 475 882 508 882 q 404 742 429 882 l 330 322 q 327 285 327 302 q 576 136 327 136 q 942 409 894 136 q 971 648 971 576 q 960 701 971 693 l 808 796 q 766 873 766 822 q 775 926 766 897 q 907 1017 803 1017 l 1085 1017 q 1221 949 1221 1017 q 1085 882 1221 882 l 900 882 l 1019 810 q 1098 596 1098 763 q 1077 393 1098 510 q 993 177 1055 264 z "},"រ":{"ha":575,"x_min":68,"x_max":575,"o":"m 260 203 l 251 203 q 203 170 203 203 q 226 136 203 136 q 254 171 248 136 l 260 203 m 388 146 q 226 0 362 0 q 68 170 68 0 q 251 339 68 339 q 284 338 268 339 l 296 409 q 326 648 326 576 q 314 701 326 693 l 162 796 q 120 873 120 822 q 130 926 120 897 q 262 1017 157 1017 l 439 1017 q 575 949 575 1017 q 439 882 575 882 l 254 882 l 374 810 q 452 596 452 763 q 431 393 452 510 l 388 146 z "},"ល":{"ha":1831,"x_min":185,"x_max":1831,"o":"m 919 576 q 926 648 926 614 q 590 882 926 882 q 415 806 429 882 l 330 315 q 319 214 319 256 q 353 126 319 140 q 387 118 372 118 q 431 142 414 118 q 443 181 443 164 q 395 224 443 214 q 334 272 334 230 q 336 292 334 281 q 390 334 347 334 q 430 327 408 334 q 564 193 564 292 q 529 75 564 142 q 389 0 475 0 q 299 18 348 0 q 185 224 185 57 q 197 344 185 277 l 282 831 q 590 1017 315 1017 q 1063 665 1063 1017 q 1053 551 1063 612 l 1013 322 q 1008 278 1008 299 q 1211 136 1008 136 q 1552 409 1504 136 q 1581 648 1581 576 q 1570 701 1581 693 l 1418 796 q 1376 873 1376 822 q 1385 926 1376 897 q 1518 1017 1413 1017 l 1695 1017 q 1831 949 1831 1017 q 1695 882 1831 882 l 1510 882 l 1630 810 q 1708 596 1708 763 q 1687 393 1708 510 q 1211 0 1618 0 q 871 269 871 0 q 879 350 871 307 l 919 576 z "},"វ":{"ha":575,"x_min":68,"x_max":575,"o":"m 260 203 l 251 203 q 203 170 203 203 q 226 136 203 136 q 254 171 248 136 l 260 203 m 420 982 q 439 1051 439 990 q 416 1121 439 1098 q 397 1166 397 1139 q 398 1182 397 1173 q 490 1221 405 1221 q 575 1051 575 1221 q 503 860 575 895 q 431 846 474 846 q 254 882 362 846 l 374 810 q 452 596 452 763 q 431 393 452 510 l 388 146 q 226 0 362 0 q 68 170 68 0 q 251 339 68 339 q 284 338 268 339 l 296 409 q 326 648 326 576 q 314 701 326 693 l 162 796 q 120 873 120 822 q 130 926 120 897 q 254 1017 157 1017 q 347 996 293 1017 q 406 980 385 980 q 420 982 414 980 z "},"ឝ":{"ha":1221,"x_min":153,"x_max":1221,"o":"m 203 949 q 339 1017 203 1017 l 1085 1017 q 1221 949 1221 1017 q 1085 882 1221 882 l 408 882 q 365 841 365 882 q 394 746 365 807 q 257 833 310 785 q 203 949 203 882 m 971 340 q 972 364 972 353 q 543 610 972 610 q 368 534 381 610 l 323 284 l 302 159 q 545 339 412 339 q 719 284 677 339 q 738 235 738 258 q 713 189 738 210 q 663 167 690 167 q 610 186 637 167 q 536 210 574 210 q 485 199 511 210 q 322 43 418 174 q 228 0 265 0 q 166 17 190 0 q 153 64 153 26 q 165 165 153 101 l 189 297 l 235 559 q 543 746 267 746 q 1109 380 1109 746 q 1107 340 1109 361 l 1119 340 q 1221 273 1221 340 q 1119 205 1221 205 l 1086 205 l 1057 34 q 987 0 1042 0 q 917 39 932 0 q 909 73 909 56 q 920 111 909 92 q 946 186 939 144 l 949 205 l 818 205 l 818 340 l 971 340 z "},"ឞ":{"ha":1221,"x_min":136,"x_max":1221,"o":"m 479 615 l 178 796 q 136 873 136 822 q 145 926 136 897 q 277 1017 173 1017 l 455 1017 q 591 949 591 1017 q 455 882 591 882 l 270 882 l 538 725 q 552 677 552 699 q 544 647 552 661 q 479 615 525 615 m 1080 408 q 1077 393 1078 401 q 576 0 1008 0 q 189 269 189 0 q 197 350 189 307 l 258 701 l 385 635 l 330 322 q 327 285 327 302 q 576 136 327 136 q 942 408 893 136 l 818 408 l 818 544 l 963 544 q 971 648 971 610 q 960 701 971 693 l 808 796 q 766 873 766 822 q 775 926 766 897 q 907 1017 803 1017 l 1085 1017 q 1221 949 1221 1017 q 1085 882 1221 882 l 900 882 l 1019 810 q 1098 597 1098 763 q 1096 544 1098 572 l 1119 544 q 1221 476 1221 544 q 1119 408 1221 408 l 1080 408 z "},"ស":{"ha":1831,"x_min":185,"x_max":1831,"o":"m 663 731 q 1030 446 1030 699 q 1023 374 1030 412 l 1013 322 q 1008 278 1008 299 q 1211 136 1008 136 q 1552 409 1504 136 q 1581 648 1581 576 q 1570 701 1581 693 l 1418 796 q 1376 873 1376 822 q 1385 926 1376 897 q 1518 1017 1413 1017 l 1695 1017 q 1831 949 1831 1017 q 1695 882 1831 882 l 1510 882 l 1630 810 q 1708 596 1708 763 q 1687 393 1708 510 q 1211 0 1618 0 q 871 269 871 0 q 879 350 871 307 l 890 399 q 893 432 893 416 q 543 601 893 601 q 368 525 381 601 l 330 315 q 319 214 319 256 q 353 126 319 140 q 387 118 372 118 q 431 142 414 118 q 443 181 443 164 q 395 224 443 214 q 334 272 334 230 q 336 292 334 281 q 390 334 347 334 q 430 327 408 334 q 564 193 564 292 q 529 75 564 142 q 389 0 475 0 q 299 18 348 0 q 185 224 185 57 q 197 344 185 277 l 235 550 q 429 727 260 694 l 313 796 q 271 873 271 822 q 281 926 271 897 q 413 1017 309 1017 l 808 1017 q 943 949 943 1017 q 808 882 943 882 l 406 882 l 663 731 z "},"ហ":{"ha":1831,"x_min":136,"x_max":1730,"o":"m 479 615 l 178 796 q 136 873 136 822 q 145 926 136 897 q 277 1017 173 1017 l 455 1017 q 591 949 591 1017 q 455 882 591 882 l 270 882 l 538 725 q 552 677 552 699 q 544 647 552 661 q 479 615 525 615 m 330 322 q 327 285 327 302 q 576 136 327 136 q 942 409 894 136 q 971 648 971 576 q 960 701 971 693 l 808 796 q 766 873 766 822 q 775 926 766 897 q 907 1017 803 1017 l 1416 1017 q 1730 702 1730 1017 q 1716 551 1730 634 l 1624 34 q 1555 0 1610 0 q 1485 39 1500 0 q 1477 73 1477 56 q 1488 111 1477 92 q 1514 186 1507 144 l 1582 576 q 1593 685 1593 637 q 1416 882 1593 882 l 900 882 l 1019 810 q 1098 596 1098 763 q 1077 393 1098 510 q 576 0 1008 0 q 189 269 189 0 q 197 350 189 307 l 258 701 l 385 635 l 330 322 z "},"ឡ":{"ha":1831,"x_min":256,"x_max":1831,"o":"m 924 463 q 998 493 995 465 l 998 494 q 970 511 998 511 q 927 482 935 511 q 924 463 925 473 m 763 349 l 656 359 q 256 653 256 408 q 261 713 256 682 q 746 1017 314 1017 q 1187 794 1187 1017 q 1183 749 1187 772 q 1128 709 1176 709 q 1107 711 1118 709 q 1048 760 1048 718 q 1049 771 1048 765 q 1050 783 1050 777 q 746 882 1050 882 q 394 692 427 882 q 392 666 392 678 q 678 488 392 526 l 787 477 l 794 522 q 970 647 817 647 q 1137 520 1131 647 q 1132 467 1137 496 q 901 339 1114 361 l 896 307 q 617 0 845 0 q 323 171 323 0 q 327 212 323 191 l 312 243 q 307 267 307 255 q 324 315 307 289 q 376 341 342 341 q 418 333 395 341 q 470 250 470 315 q 467 211 470 232 q 465 198 465 204 q 617 136 465 136 q 763 349 730 136 m 1552 409 q 1581 648 1581 576 q 1570 701 1581 693 l 1418 796 q 1376 873 1376 822 q 1385 926 1376 897 q 1518 1017 1413 1017 l 1695 1017 q 1831 949 1831 1017 q 1695 882 1831 882 l 1510 882 l 1630 810 q 1708 596 1708 763 q 1687 393 1708 510 l 1587 -183 q 1400 -441 1544 -441 q 1219 -348 1306 -441 q 1127 -305 1175 -305 q 1022 -356 1068 -305 q 882 -441 949 -441 q 836 -399 836 -441 q 838 -383 836 -391 l 873 -203 q 814 -136 814 -203 q 892 -68 814 -68 q 1017 -147 1017 -68 q 1015 -173 1017 -159 l 1005 -228 q 1127 -170 1050 -170 q 1296 -256 1221 -170 q 1386 -305 1345 -305 q 1455 -144 1428 -305 l 1552 409 z "},"អ":{"ha":1221,"x_min":68,"x_max":1221,"o":"m 905 203 l 897 203 q 849 170 849 203 q 871 136 849 136 q 900 171 894 136 l 905 203 m 260 203 l 251 203 q 203 170 203 203 q 226 136 203 136 q 254 171 248 136 l 260 203 m 388 146 q 226 0 362 0 q 68 170 68 0 q 251 339 68 339 q 284 338 268 339 l 296 409 q 326 648 326 576 q 314 701 326 693 l 162 796 q 120 873 120 822 q 130 926 120 897 q 262 1017 157 1017 l 439 1017 q 575 949 575 1017 q 439 882 575 882 l 254 882 l 374 810 q 452 596 452 763 q 431 393 452 510 l 388 146 m 967 576 q 971 647 971 618 q 960 701 971 693 l 808 796 q 766 873 766 822 q 775 926 766 897 q 907 1017 803 1017 l 1085 1017 q 1221 949 1221 1017 q 1085 882 1221 882 l 900 882 l 1019 810 q 1098 596 1098 763 q 1077 393 1098 510 l 1034 146 q 871 0 1008 0 q 713 170 713 0 q 897 339 713 339 q 930 338 913 339 l 942 409 q 947 441 945 425 l 583 441 q 481 509 481 441 q 583 576 481 576 l 967 576 z "},"ឣ":{"ha":1221,"x_min":68,"x_max":1221,"o":"m 905 203 l 897 203 q 849 170 849 203 q 871 136 849 136 q 900 171 894 136 l 905 203 m 260 203 l 251 203 q 203 170 203 203 q 226 136 203 136 q 254 171 248 136 l 260 203 m 388 146 q 226 0 362 0 q 68 170 68 0 q 251 339 68 339 q 284 338 268 339 l 296 409 q 326 648 326 576 q 314 701 326 693 l 162 796 q 120 873 120 822 q 130 926 120 897 q 262 1017 157 1017 l 439 1017 q 575 949 575 1017 q 439 882 575 882 l 254 882 l 374 810 q 452 596 452 763 q 431 393 452 510 l 388 146 m 967 576 q 971 647 971 618 q 960 701 971 693 l 808 796 q 766 873 766 822 q 775 926 766 897 q 907 1017 803 1017 l 1085 1017 q 1221 949 1221 1017 q 1085 882 1221 882 l 900 882 l 1019 810 q 1098 596 1098 763 q 1077 393 1098 510 l 1034 146 q 871 0 1008 0 q 713 170 713 0 q 897 339 713 339 q 930 338 913 339 l 942 409 q 947 441 945 425 l 583 441 q 481 509 481 441 q 583 576 481 576 l 967 576 z "},"ឤ":{"ha":1831,"x_min":68,"x_max":1730,"o":"m 905 203 l 897 203 q 849 170 849 203 q 871 136 849 136 q 900 171 894 136 l 905 203 m 260 203 l 251 203 q 203 170 203 203 q 226 136 203 136 q 254 171 248 136 l 260 203 m 388 146 q 226 0 362 0 q 68 170 68 0 q 251 339 68 339 q 284 338 268 339 l 296 409 q 326 648 326 576 q 314 701 326 693 l 162 796 q 120 873 120 822 q 130 926 120 897 q 262 1017 157 1017 l 439 1017 q 575 949 575 1017 q 439 882 575 882 l 254 882 l 374 810 q 452 596 452 763 q 431 393 452 510 l 388 146 m 967 576 q 971 647 971 618 q 960 701 971 693 l 808 796 q 766 873 766 822 q 775 926 766 897 q 907 1017 803 1017 l 1416 1017 q 1730 702 1730 1017 q 1716 551 1730 634 l 1624 34 q 1555 0 1610 0 q 1485 39 1500 0 q 1477 73 1477 56 q 1488 111 1477 92 q 1514 186 1507 144 l 1582 576 q 1593 685 1593 637 q 1416 882 1593 882 l 900 882 l 1019 810 q 1098 596 1098 763 q 1077 393 1098 510 l 1034 146 q 871 0 1008 0 q 713 170 713 0 q 897 339 713 339 q 930 338 913 339 l 942 409 q 947 441 945 425 l 583 441 q 481 509 481 441 q 583 576 481 576 l 967 576 z "},"ឥ":{"ha":1221,"x_min":185,"x_max":1221,"o":"m 459 741 q 543 746 498 746 q 1109 380 1109 746 q 1100 280 1109 333 l 1057 34 q 987 0 1042 0 q 917 39 932 0 q 909 73 909 56 q 920 111 909 92 q 946 186 939 144 l 966 305 q 972 364 972 336 q 543 610 972 610 q 368 534 381 610 l 330 315 q 319 214 319 256 q 353 126 319 140 q 387 118 372 118 q 431 142 414 118 q 443 181 443 164 q 395 224 443 214 q 334 272 334 230 q 336 292 334 281 q 390 334 347 334 q 430 327 408 334 q 564 193 564 292 q 529 75 564 142 q 389 0 475 0 q 299 18 348 0 q 185 224 185 57 q 197 344 185 277 l 235 559 q 388 726 256 685 q 283 800 326 755 q 203 949 203 882 q 407 1017 203 1017 q 621 983 509 1017 q 882 949 732 949 q 1085 1051 1085 949 q 1061 1121 1085 1098 q 1042 1166 1042 1139 q 1044 1182 1042 1173 q 1136 1221 1050 1221 q 1221 1051 1221 1221 q 882 814 1221 814 q 617 848 726 814 q 407 882 509 882 q 383 863 383 882 q 459 741 383 831 z "},"ឦ":{"ha":1831,"x_min":185,"x_max":1831,"o":"m 1057 34 q 987 0 1042 0 q 917 39 932 0 q 909 73 909 56 q 920 111 909 92 q 946 186 939 144 l 1015 576 q 1020 635 1020 608 q 591 882 1020 882 q 416 806 429 882 l 330 315 q 319 214 319 256 q 353 126 319 140 q 387 118 372 118 q 431 142 414 118 q 443 181 443 164 q 395 224 443 214 q 334 272 334 230 q 336 292 334 281 q 390 334 347 334 q 430 327 408 334 q 564 193 564 292 q 529 75 564 142 q 389 0 475 0 q 299 18 348 0 q 185 224 185 57 q 197 344 185 277 l 283 831 q 591 1017 315 1017 q 1158 651 1158 1017 q 1148 551 1158 604 l 1057 34 m 1695 1051 q 1672 1121 1695 1098 q 1653 1166 1653 1139 q 1654 1182 1653 1173 q 1746 1221 1661 1221 q 1831 1051 1831 1221 q 1758 860 1831 895 q 1687 846 1730 846 q 1510 882 1618 846 l 1630 810 q 1708 596 1708 763 q 1687 393 1708 510 l 1591 -152 q 1212 -441 1540 -441 l 907 -441 q 847 -395 847 -441 q 848 -381 847 -389 l 859 -322 q 861 -309 861 -315 q 543 -203 861 -203 q 369 -279 382 -203 q 368 -284 368 -282 q 407 -305 368 -305 q 450 -271 446 -305 l 450 -270 q 503 -216 450 -218 l 506 -216 q 562 -287 557 -216 q 407 -441 540 -441 q 231 -302 231 -441 q 235 -254 231 -280 q 543 -68 268 -68 q 998 -292 998 -68 q 998 -304 998 -298 l 1212 -304 q 1456 -138 1426 -304 l 1552 409 q 1581 648 1581 576 q 1570 701 1581 693 l 1418 796 q 1376 873 1376 822 q 1385 926 1376 897 q 1510 1017 1413 1017 q 1603 996 1549 1017 q 1662 980 1641 980 q 1676 982 1670 980 q 1695 1051 1695 990 z "},"ឧ":{"ha":1221,"x_min":179,"x_max":1171,"o":"m 610 0 q 179 222 179 0 q 183 268 179 243 q 275 375 199 357 q 1025 628 1017 462 q 1030 688 1030 660 q 756 882 1030 882 q 396 718 432 882 q 433 673 398 673 q 484 687 454 673 q 542 583 542 643 q 540 558 542 570 q 430 490 527 490 q 403 492 417 490 q 259 669 259 508 q 266 744 259 703 q 756 1017 318 1017 q 1171 712 1171 1017 q 1161 613 1171 666 q 316 244 1135 334 q 315 233 315 238 q 610 136 315 136 q 964 279 939 136 q 1017 312 977 312 q 1039 310 1027 312 q 1098 254 1097 300 l 1044 -34 q 975 -68 1030 -68 q 905 -29 920 -68 q 897 5 897 -12 q 908 43 897 24 q 610 0 793 0 z "},"ឨ":{"ha":1221,"x_min":179,"x_max":1289,"o":"m 610 0 q 179 222 179 0 q 183 268 179 243 q 275 375 199 357 q 1025 628 1017 462 q 1030 688 1030 660 q 756 882 1030 882 q 396 718 432 882 q 433 673 398 673 q 484 687 454 673 q 542 583 542 643 q 540 558 542 570 q 430 490 527 490 q 403 492 417 490 q 259 669 259 508 q 266 744 259 703 q 756 1017 318 1017 q 1171 712 1171 1017 q 1161 613 1171 666 q 316 244 1135 334 q 315 233 315 238 q 610 136 315 136 q 964 279 939 136 q 1017 312 977 312 q 1039 310 1027 312 q 1098 254 1097 300 l 1044 -34 q 975 -68 1030 -68 q 905 -29 920 -68 q 897 5 897 -12 q 908 43 897 24 q 610 0 793 0 m 271 1214 q 407 1282 271 1282 l 1153 1282 q 1289 1214 1289 1282 q 1153 1146 1289 1146 l 476 1146 q 433 1105 433 1146 q 462 1010 433 1072 q 325 1098 378 1049 q 271 1214 271 1146 z "},"ឩ":{"ha":1221,"x_min":179,"x_max":1303,"o":"m 610 0 q 179 222 179 0 q 183 268 179 243 q 275 375 199 357 q 1025 628 1017 462 q 1030 688 1030 660 q 756 882 1030 882 q 396 718 432 882 q 433 673 398 673 q 484 687 454 673 q 542 583 542 643 q 540 558 542 570 q 430 490 527 490 q 403 492 417 490 q 259 669 259 508 q 266 744 259 703 q 756 1017 318 1017 q 1171 712 1171 1017 q 1161 613 1171 666 q 316 244 1135 334 q 315 233 315 238 q 610 136 315 136 q 964 279 939 136 q 1017 312 977 312 q 1039 310 1027 312 q 1098 254 1097 300 l 1044 -34 q 975 -68 1030 -68 q 905 -29 920 -68 q 897 5 897 -12 q 908 43 897 24 q 610 0 793 0 m 1206 -235 l 1072 -212 l 1170 342 l 1303 317 l 1206 -235 z "},"ឪ":{"ha":1221,"x_min":179,"x_max":1289,"o":"m 610 0 q 179 222 179 0 q 183 268 179 243 q 275 375 199 357 q 1025 628 1017 462 q 1030 688 1030 660 q 756 882 1030 882 q 396 718 432 882 q 433 673 398 673 q 484 687 454 673 q 542 583 542 643 q 540 558 542 570 q 430 490 527 490 q 403 492 417 490 q 259 669 259 508 q 266 744 259 703 q 756 1017 318 1017 q 1171 712 1171 1017 q 1161 613 1171 666 q 316 244 1135 334 q 315 233 315 238 q 610 136 315 136 q 964 279 939 136 q 1017 312 977 312 q 1039 310 1027 312 q 1098 254 1097 300 l 1044 -34 q 975 -68 1030 -68 q 905 -29 920 -68 q 897 5 897 -12 q 908 43 897 24 q 610 0 793 0 m 574 1017 q 351 1129 431 1047 q 271 1280 271 1212 q 475 1348 271 1348 q 688 1314 576 1348 q 949 1280 800 1280 q 1153 1381 1153 1280 q 1129 1451 1153 1428 q 1110 1496 1110 1469 q 1112 1512 1110 1503 q 1204 1551 1118 1551 q 1289 1381 1289 1551 q 949 1144 1289 1144 q 685 1178 793 1144 q 475 1212 577 1212 q 451 1194 451 1212 q 574 1017 451 1152 z "},"ឫ":{"ha":1221,"x_min":136,"x_max":1221,"o":"m 330 322 q 327 285 327 302 q 576 136 327 136 q 942 409 894 136 q 971 648 971 576 q 960 701 971 693 l 808 796 q 766 873 766 822 q 775 926 766 897 q 907 1017 803 1017 l 1085 1017 q 1221 949 1221 1017 q 1085 882 1221 882 l 900 882 l 1019 810 q 1098 596 1098 763 q 1077 393 1098 510 q 576 0 1008 0 q 189 269 189 0 q 197 350 189 307 l 258 701 l 385 635 l 330 322 m 479 615 l 178 796 q 136 873 136 822 q 145 926 136 897 q 277 1017 173 1017 l 455 1017 q 591 949 591 1017 q 455 882 591 882 l 270 882 l 538 725 q 552 677 552 699 q 544 647 552 661 q 479 615 525 615 m 678 -136 q 787 -68 678 -68 q 966 -209 966 -68 q 961 -259 966 -232 q 271 -441 929 -441 q 136 -373 136 -441 q 271 -305 136 -305 q 828 -235 815 -305 q 829 -228 829 -231 q 787 -203 829 -203 q 678 -136 678 -203 z "},"ឬ":{"ha":1221,"x_min":136,"x_max":1221,"o":"m 330 322 q 327 285 327 302 q 576 136 327 136 q 942 409 894 136 q 971 648 971 576 q 960 701 971 693 l 808 796 q 766 873 766 822 q 775 926 766 897 q 907 1017 803 1017 l 1085 1017 q 1221 949 1221 1017 q 1085 882 1221 882 l 900 882 l 1019 810 q 1098 596 1098 763 q 1077 393 1098 510 q 576 0 1008 0 q 189 269 189 0 q 197 350 189 307 l 258 701 l 385 635 l 330 322 m 479 615 l 178 796 q 136 873 136 822 q 145 926 136 897 q 277 1017 173 1017 l 455 1017 q 591 949 591 1017 q 455 882 591 882 l 270 882 l 538 725 q 552 677 552 699 q 544 647 552 661 q 479 615 525 615 m 943 -302 q 998 -328 970 -314 q 1099 -422 1099 -373 q 1094 -445 1099 -433 q 1038 -477 1079 -477 q 943 -451 1001 -477 q 806 -385 869 -417 q 271 -441 633 -441 q 136 -373 136 -441 q 271 -305 136 -305 q 828 -235 815 -305 q 829 -228 829 -231 q 787 -203 829 -203 q 678 -136 678 -203 q 787 -68 678 -68 q 966 -209 966 -68 q 961 -259 966 -232 q 943 -302 957 -281 z "},"ឭ":{"ha":1221,"x_min":136,"x_max":1177,"o":"m 678 -136 q 787 -68 678 -68 q 966 -208 966 -68 q 961 -259 966 -231 q 271 -441 929 -441 q 136 -373 136 -441 q 271 -305 136 -305 q 828 -235 815 -305 q 829 -228 829 -231 q 787 -203 829 -203 q 678 -136 678 -203 m 787 690 q 703 650 769 650 q 638 707 638 650 l 638 718 q 544 882 638 882 q 404 735 430 882 l 330 315 q 319 214 319 256 q 353 126 319 140 q 387 118 372 118 q 431 142 414 118 q 443 181 443 164 q 395 224 443 214 q 334 272 334 230 q 336 292 334 281 q 390 334 347 334 q 430 327 408 334 q 564 193 564 292 q 529 75 564 142 q 389 0 475 0 q 299 18 348 0 q 185 224 185 57 q 197 344 185 277 l 271 760 q 544 1017 316 1017 q 733 882 679 1017 q 928 1017 817 1017 q 1001 1003 963 1017 q 1177 753 1177 939 q 1168 668 1177 713 l 1057 34 q 987 0 1042 0 q 917 39 932 0 q 909 73 909 56 q 920 111 909 92 q 946 186 939 144 l 1035 690 q 1040 744 1040 720 q 954 876 1040 844 q 930 880 942 880 q 787 690 853 880 z "},"ឮ":{"ha":1221,"x_min":136,"x_max":1177,"o":"m 943 -302 q 998 -328 970 -314 q 1099 -422 1099 -372 q 1094 -445 1099 -433 q 1038 -477 1079 -477 q 943 -451 1001 -477 q 806 -385 869 -417 q 271 -441 633 -441 q 136 -373 136 -441 q 271 -305 136 -305 q 828 -235 815 -305 q 829 -228 829 -231 q 787 -203 829 -203 q 678 -136 678 -203 q 787 -68 678 -68 q 966 -209 966 -68 q 961 -259 966 -232 q 943 -302 957 -281 m 787 690 q 703 650 769 650 q 638 707 638 650 l 638 718 q 544 882 638 882 q 404 735 430 882 l 330 315 q 319 214 319 256 q 353 126 319 140 q 387 118 372 118 q 431 142 414 118 q 443 181 443 164 q 395 224 443 214 q 334 272 334 230 q 336 292 334 281 q 390 334 347 334 q 430 327 408 334 q 564 193 564 292 q 529 75 564 142 q 389 0 475 0 q 299 18 348 0 q 185 224 185 57 q 197 344 185 277 l 271 760 q 544 1017 316 1017 q 733 882 679 1017 q 928 1017 817 1017 q 1001 1003 963 1017 q 1177 753 1177 939 q 1168 668 1177 713 l 1057 34 q 987 0 1042 0 q 917 39 932 0 q 909 73 909 56 q 920 111 909 92 q 946 186 939 144 l 1035 690 q 1040 744 1040 720 q 954 876 1040 844 q 930 880 942 880 q 787 690 853 880 z "},"ឯ":{"ha":1221,"x_min":146,"x_max":1158,"o":"m 1106 308 q 867 0 1050 0 q 616 127 747 0 q 475 203 536 203 q 374 153 408 203 l 340 102 q 205 0 273 0 q 146 50 146 0 q 148 69 146 59 l 190 312 l 212 433 l 222 494 q 227 540 227 519 q 218 587 227 568 q 212 610 212 598 q 230 658 212 632 q 282 684 248 684 q 324 676 301 684 q 376 593 376 659 q 372 554 376 575 l 319 254 q 475 339 376 339 q 695 237 594 339 q 867 136 796 136 q 975 345 937 136 l 1015 576 q 1020 635 1020 608 q 591 882 1020 882 q 422 844 429 882 q 379 815 418 815 q 349 819 366 815 q 296 890 296 828 q 300 926 296 907 l 317 1021 l 331 1103 q 332 1113 332 1108 q 267 1153 332 1153 q 194 1221 194 1153 q 267 1289 194 1289 q 472 1143 472 1289 q 464 1081 472 1115 l 450 1001 q 591 1017 510 1017 q 1158 651 1158 1017 q 1148 551 1158 604 l 1106 308 z "},"ឰ":{"ha":1221,"x_min":100,"x_max":1177,"o":"m 787 690 q 703 650 769 650 q 638 707 638 650 l 638 718 q 544 882 638 882 q 404 735 430 882 l 330 315 q 319 214 319 256 q 353 126 319 140 q 387 118 372 118 q 431 142 414 118 q 443 181 443 164 q 395 224 443 214 q 334 272 334 230 q 336 292 334 281 q 390 334 347 334 q 430 327 408 334 q 564 193 564 292 q 529 75 564 142 q 389 0 475 0 q 299 18 348 0 q 185 224 185 57 q 197 344 185 277 l 271 760 q 544 1017 316 1017 q 733 882 679 1017 q 928 1017 817 1017 q 1001 1003 963 1017 q 1177 753 1177 939 q 1168 668 1177 713 l 1057 34 q 987 0 1042 0 q 917 39 932 0 q 909 73 909 56 q 920 111 909 92 q 946 186 939 144 l 1035 690 q 1040 744 1040 720 q 954 876 1040 844 q 930 880 942 880 q 787 690 853 880 m 422 -292 l 394 -298 q 266 -339 306 -316 q 233 -376 233 -357 q 235 -385 233 -380 q 334 -407 245 -407 q 407 -344 407 -407 l 407 -333 q 422 -292 407 -311 m 581 -260 q 659 -308 617 -275 q 795 -367 752 -367 q 805 -366 801 -367 q 859 -315 848 -359 q 865 -274 865 -290 q 862 -256 865 -262 q 857 -233 857 -244 q 867 -203 857 -218 l 581 -260 m 933 -165 q 994 -227 975 -186 q 1002 -267 1002 -243 q 979 -363 1002 -307 q 905 -462 940 -432 q 826 -500 871 -492 q 802 -502 814 -502 q 724 -486 767 -502 q 593 -412 665 -464 l 545 -378 l 545 -387 q 490 -498 545 -456 q 334 -543 431 -543 q 184 -517 236 -543 q 112 -449 132 -492 q 100 -391 100 -422 q 105 -347 100 -370 q 184 -238 117 -287 q 371 -165 251 -190 l 866 -66 q 884 -64 876 -64 q 937 -117 928 -64 q 939 -137 939 -127 q 933 -165 939 -153 z "},"ឱ":{"ha":1221,"x_min":179,"x_max":1267,"o":"m 610 0 q 179 222 179 0 q 183 268 179 243 q 275 375 199 357 q 1025 628 1017 462 q 1030 688 1030 660 q 756 882 1030 882 q 396 718 432 882 q 433 673 398 673 q 484 687 454 673 q 542 583 542 643 q 540 558 542 570 q 430 490 527 490 q 403 492 417 490 q 259 669 259 508 q 266 744 259 703 q 756 1017 318 1017 q 1171 712 1171 1017 q 1161 613 1171 666 q 316 244 1135 334 q 315 233 315 238 q 610 136 315 136 q 964 279 939 136 q 1017 312 977 312 q 1039 310 1027 312 q 1098 254 1097 300 l 1044 -34 q 975 -68 1030 -68 q 905 -29 920 -68 q 897 5 897 -12 q 908 43 897 24 q 610 0 793 0 m 271 1214 q 370 1319 271 1282 q 692 1356 468 1356 q 1177 1275 1065 1356 q 1267 1153 1267 1209 q 1261 1126 1267 1139 q 1221 1095 1249 1095 q 1133 1139 1188 1095 q 692 1221 1031 1221 q 420 1183 476 1221 q 399 1143 399 1170 q 462 1010 399 1097 q 325 1098 378 1049 q 271 1214 271 1146 z "},"ឲ":{"ha":1221,"x_min":190,"x_max":1154,"o":"m 330 320 q 328 288 328 303 q 610 136 328 136 q 957 248 937 136 q 958 256 958 252 q 885 328 958 296 q 817 418 817 357 q 819 441 817 429 q 918 541 833 518 q 1019 602 1015 579 l 1019 604 q 918 625 1019 625 q 815 564 826 625 q 741 499 800 499 q 728 500 734 499 q 657 557 657 506 q 660 577 657 566 q 752 715 680 669 q 918 761 825 761 q 1107 714 1044 761 q 1154 617 1154 680 q 1149 574 1154 597 q 1090 478 1138 519 q 979 417 1042 436 q 1074 339 1044 386 q 1094 262 1094 306 q 1090 225 1094 244 q 610 0 1050 0 q 190 267 190 0 q 197 340 190 301 l 283 831 q 591 1017 315 1017 q 956 958 820 1017 q 1009 890 1009 932 q 1005 865 1009 878 q 942 821 991 821 q 901 827 924 821 q 591 882 793 882 q 416 806 429 882 l 330 320 z "},"ឳ":{"ha":1221,"x_min":179,"x_max":1267,"o":"m 610 0 q 179 222 179 0 q 183 268 179 243 q 275 375 199 357 q 1025 628 1017 462 q 1030 688 1030 660 q 756 882 1030 882 q 396 718 432 882 q 433 673 398 673 q 484 687 454 673 q 542 583 542 643 q 540 558 542 570 q 430 490 527 490 q 403 492 417 490 q 259 669 259 508 q 266 744 259 703 q 756 1017 318 1017 q 1171 712 1171 1017 q 1161 613 1171 666 q 316 244 1135 334 q 315 233 315 238 q 610 136 315 136 q 964 279 939 136 q 1017 312 977 312 q 1039 310 1027 312 q 1098 254 1097 300 l 1044 -34 q 975 -68 1030 -68 q 905 -29 920 -68 q 897 5 897 -12 q 908 43 897 24 q 610 0 793 0 m 1123 1046 q 1024 1036 1067 1036 q 944 1048 977 1036 q 865 1141 880 1071 q 861 1181 861 1160 q 863 1215 861 1197 q 692 1221 787 1221 q 420 1183 476 1221 q 399 1143 399 1170 q 462 1010 399 1097 q 325 1098 378 1049 q 271 1214 271 1146 q 370 1319 271 1282 q 692 1356 468 1356 q 901 1348 809 1356 q 1046 1519 946 1450 q 1164 1567 1117 1567 q 1191 1563 1179 1567 q 1215 1549 1204 1558 q 1233 1515 1233 1533 q 1159 1432 1233 1478 q 1044 1327 1083 1385 q 1177 1275 1132 1308 q 1267 1153 1267 1209 q 1261 1126 1267 1139 q 1123 1046 1238 1067 m 997 1195 q 996 1185 996 1190 q 1010 1142 996 1156 q 1052 1131 1021 1131 q 1130 1141 1082 1131 q 997 1195 1085 1176 z "},"ា":{"ha":487,"x_min":-68,"x_max":386,"o":"m -68 1017 l 72 1017 q 386 702 386 1017 q 372 551 386 634 l 280 34 q 211 0 266 0 q 140 39 156 0 q 133 73 133 56 q 144 111 133 92 q 170 186 163 144 l 238 576 q 249 685 249 637 q 72 882 249 882 l -68 882 l -68 1017 z "},"ិ":{"ha":0,"x_min":-780,"x_max":0,"o":"m -780 1420 q -475 1594 -780 1594 q -58 1416 -231 1594 q 0 1322 0 1356 q -68 1255 0 1255 l -610 1255 q -780 1420 -780 1255 m -644 1430 q -610 1390 -644 1390 l -224 1390 q -475 1458 -318 1458 q -540 1460 -511 1460 q -644 1430 -644 1460 z "},"ី":{"ha":0,"x_min":-780,"x_max":34,"o":"m -610 1390 l -224 1390 q -475 1458 -318 1458 q -540 1460 -511 1460 q -644 1430 -644 1460 q -610 1390 -644 1390 m -11 1357 q 0 1322 0 1337 q -68 1255 0 1255 l -610 1255 q -780 1420 -780 1255 q -475 1594 -780 1594 q -127 1478 -277 1594 l -100 1636 q -45 1664 -83 1664 q -30 1663 -38 1664 q 34 1613 20 1656 l -11 1357 z "},"ឹ":{"ha":0,"x_min":-780,"x_max":34,"o":"m -610 1390 l -224 1390 q -475 1458 -318 1458 q -540 1460 -511 1460 q -644 1430 -644 1460 q -610 1390 -644 1390 m -292 1566 q -138 1695 -277 1695 q 34 1534 34 1695 q -39 1397 34 1432 q 0 1322 0 1351 q -68 1255 0 1255 l -610 1255 q -780 1420 -780 1255 q -475 1594 -780 1594 q -292 1566 -377 1594 m -191 1520 q -129 1479 -160 1503 q -84 1531 -84 1485 l -84 1535 q -136 1588 -85 1588 l -140 1588 q -192 1535 -192 1586 l -192 1531 q -191 1520 -192 1526 z "},"ឺ":{"ha":0,"x_min":-780,"x_max":34,"o":"m -610 1390 l -224 1390 q -475 1458 -318 1458 q -540 1460 -511 1460 q -644 1430 -644 1460 q -610 1390 -644 1390 m -335 1578 l -319 1667 q -265 1695 -302 1695 q -250 1694 -258 1695 q -186 1644 -199 1687 l -205 1529 q -127 1478 -165 1507 l -100 1636 q -45 1664 -83 1664 q -30 1663 -38 1664 q 34 1613 20 1656 l -11 1357 q 0 1322 0 1337 q -68 1255 0 1255 l -610 1255 q -780 1420 -780 1255 q -475 1594 -780 1594 q -335 1578 -401 1594 z "},"ុ":{"ha":0,"x_min":-397,"x_max":-193,"o":"m -198 -161 l -250 -441 q -319 -475 -264 -475 q -389 -437 -374 -475 q -397 -403 -397 -419 q -386 -364 -397 -382 q -360 -289 -367 -331 l -332 -136 q -332 -125 -332 -130 q -258 -68 -332 -68 q -193 -127 -193 -68 q -198 -161 -193 -142 z "},"ូ":{"ha":0,"x_min":-654,"x_max":-196,"o":"m -234 -68 q -196 -103 -196 -68 q -203 -141 -196 -119 l -238 -233 q -332 -415 -283 -354 q -475 -476 -381 -476 q -637 -408 -604 -476 q -654 -317 -654 -372 q -641 -205 -654 -269 l -623 -121 q -526 -68 -611 -68 q -486 -112 -486 -68 q -489 -142 -486 -125 l -507 -227 q -517 -301 -517 -276 q -515 -320 -517 -314 q -477 -340 -507 -340 q -428 -316 -453 -340 q -370 -208 -403 -291 l -340 -125 q -234 -68 -321 -68 z "},"ួ":{"ha":0,"x_min":-713,"x_max":-188,"o":"m -245 -68 q -188 -104 -188 -68 q -195 -141 -188 -119 l -236 -324 q -365 -471 -264 -471 q -495 -395 -429 -471 q -553 -370 -528 -370 q -574 -418 -564 -370 q -672 -471 -586 -471 q -713 -431 -713 -471 q -710 -407 -713 -420 l -648 -121 q -571 -68 -636 -68 q -511 -118 -511 -68 q -514 -142 -511 -129 l -542 -267 q -463 -301 -496 -267 q -407 -336 -431 -336 q -369 -300 -383 -336 l -331 -125 q -245 -68 -313 -68 z "},"ើ":{"ha":0,"x_min":-780,"x_max":34,"o":"m -610 1390 l -224 1390 q -475 1458 -318 1458 q -540 1460 -511 1460 q -644 1430 -644 1460 q -610 1390 -644 1390 m -11 1357 q 0 1322 0 1337 q -68 1255 0 1255 l -610 1255 q -780 1420 -780 1255 q -475 1594 -780 1594 q -127 1478 -277 1594 l -100 1636 q -45 1664 -83 1664 q -30 1663 -38 1664 q 34 1613 20 1656 l -11 1357 z "},"ឿ":{"ha":575,"x_min":-407,"x_max":479,"o":"m -237 1390 l 149 1390 q -102 1458 55 1458 q -167 1460 -138 1460 q -271 1430 -271 1460 q -237 1390 -271 1390 m 363 1354 q 479 1186 479 1305 q 475 1137 479 1163 l 422 829 l 365 501 l 251 -154 q -100 -475 195 -475 q -395 -277 -395 -475 q -389 -220 -395 -250 l -372 -119 q -294 -68 -363 -68 q -235 -117 -235 -68 q -237 -136 -235 -125 l -256 -237 q -258 -256 -258 -248 q -100 -339 -258 -339 q 111 -140 75 -339 l 340 1155 q 341 1169 341 1162 q 136 1255 341 1255 l -237 1255 q -407 1420 -407 1255 q -102 1594 -407 1594 q 38 1578 -28 1594 l 54 1667 q 108 1695 71 1695 q 123 1694 115 1695 q 187 1644 174 1687 l 168 1529 q 246 1478 208 1507 l 273 1636 q 328 1664 290 1664 q 343 1663 335 1664 q 407 1613 393 1656 l 362 1357 q 363 1354 363 1356 z "},"ៀ":{"ha":575,"x_min":-395,"x_max":479,"o":"m -294 -68 q -235 -117 -235 -68 q -237 -136 -235 -125 l -256 -237 q -258 -256 -258 -248 q -100 -339 -258 -339 q 111 -140 75 -339 l 340 1155 q 341 1169 341 1162 q 136 1255 341 1255 l 3 1255 q -108 1360 -108 1255 q -103 1407 -108 1381 l -90 1484 q -87 1510 -87 1498 q -136 1560 -87 1560 q -203 1628 -203 1560 q -136 1695 -203 1695 q 52 1531 52 1695 q 45 1467 52 1501 l 32 1390 l 136 1390 q 479 1186 479 1390 q 475 1137 479 1163 l 422 829 l 365 501 l 251 -154 q -100 -475 195 -475 q -395 -277 -395 -475 q -389 -220 -395 -250 l -372 -119 q -294 -68 -363 -68 z "},"េ":{"ha":609,"x_min":185,"x_max":745,"o":"m 627 831 q 502 882 552 882 q 415 806 429 882 l 330 315 q 319 214 319 256 q 353 126 319 140 q 387 118 372 118 q 431 142 414 118 q 443 181 443 164 q 395 224 443 214 q 334 272 334 230 q 336 292 334 281 q 390 334 347 334 q 430 327 408 334 q 564 193 564 292 q 529 75 564 142 q 389 0 475 0 q 299 18 348 0 q 185 224 185 57 q 197 344 185 277 l 282 831 q 502 1017 315 1017 q 674 954 604 1017 q 745 854 745 891 q 723 810 745 838 q 700 799 715 799 q 627 831 673 799 z "},"ែ":{"ha":609,"x_min":185,"x_max":814,"o":"m 627 831 q 502 882 552 882 q 415 806 429 882 l 330 315 q 319 214 319 256 q 353 126 319 140 q 387 118 372 118 q 431 142 414 118 q 443 181 443 164 q 395 224 443 214 q 334 272 334 230 q 336 292 334 281 q 390 334 347 334 q 430 327 408 334 q 564 193 564 292 q 529 75 564 142 q 389 0 475 0 q 299 18 348 0 q 185 224 185 57 q 197 344 185 277 l 282 831 q 502 1017 315 1017 q 674 954 604 1017 q 745 854 745 891 q 723 810 745 838 q 700 799 715 799 q 627 831 673 799 m 439 1231 q 543 1221 504 1221 q 678 1390 678 1221 q 654 1460 678 1437 q 635 1505 635 1478 q 637 1521 635 1512 q 729 1560 644 1560 q 814 1390 814 1560 q 543 1085 814 1085 q 203 1244 203 1085 q 205 1271 203 1257 q 319 1356 221 1356 q 449 1319 417 1356 q 465 1280 465 1300 q 449 1241 465 1261 q 439 1231 444 1235 z "},"ៃ":{"ha":609,"x_min":185,"x_max":819,"o":"m 627 831 q 502 882 552 882 q 415 806 429 882 l 330 315 q 319 214 319 256 q 353 126 319 140 q 387 118 372 118 q 431 142 414 118 q 443 181 443 164 q 395 224 443 214 q 334 272 334 230 q 336 292 334 281 q 390 334 347 334 q 430 327 408 334 q 564 193 564 292 q 529 75 564 142 q 389 0 475 0 q 299 18 348 0 q 185 224 185 57 q 197 344 185 277 l 282 831 q 502 1017 315 1017 q 674 954 604 1017 q 745 854 745 891 q 723 810 745 838 q 700 799 715 799 q 627 831 673 799 m 339 1200 q 407 1268 339 1268 q 543 1221 475 1221 q 680 1272 671 1221 q 681 1278 681 1275 q 576 1322 681 1322 q 389 1420 389 1322 q 391 1441 389 1430 l 401 1501 q 403 1514 403 1508 q 339 1560 403 1560 q 271 1628 271 1560 q 339 1695 271 1695 q 543 1541 543 1695 q 537 1488 543 1516 l 532 1458 l 576 1458 q 819 1295 819 1458 q 814 1249 819 1274 q 543 1085 785 1085 q 339 1200 339 1085 z "},"ោ":{"ha":487,"x_min":-68,"x_max":386,"o":"m -68 1017 l 72 1017 q 386 702 386 1017 q 372 551 386 634 l 280 34 q 211 0 266 0 q 140 39 156 0 q 133 73 133 56 q 144 111 133 92 q 170 186 163 144 l 238 576 q 249 685 249 637 q 72 882 249 882 l -68 882 l -68 1017 z "},"ៅ":{"ha":487,"x_min":-68,"x_max":386,"o":"m 325 919 q 386 702 386 841 q 372 551 386 634 l 280 34 q 211 0 266 0 q 140 39 156 0 q 133 73 133 56 q 144 111 133 92 q 170 186 163 144 l 238 576 q 249 685 249 637 q 72 882 249 882 l -68 882 l -68 1017 l 72 1017 q 201 1000 145 1017 l 247 1260 q 249 1279 249 1270 q 119 1356 249 1356 q 0 1424 0 1356 q 119 1492 0 1492 q 386 1296 386 1492 q 380 1235 386 1267 l 325 919 z "},"ំ":{"ha":0,"x_min":-610,"x_max":-203,"o":"m -475 1424 q -458 1373 -475 1390 q -407 1356 -441 1356 q -356 1373 -373 1356 q -339 1424 -339 1390 q -356 1475 -339 1458 q -407 1492 -373 1492 q -458 1475 -441 1492 q -475 1424 -475 1458 m -203 1424 q -254 1272 -203 1322 q -407 1221 -304 1221 q -559 1272 -509 1221 q -610 1424 -610 1322 q -559 1577 -610 1527 q -407 1628 -509 1628 q -254 1577 -304 1628 q -203 1424 -203 1527 z "},"ះ":{"ha":760,"x_min":177,"x_max":692,"o":"m 420 814 q 437 763 420 780 q 488 746 454 746 q 539 763 522 746 q 556 814 556 780 q 539 865 556 848 q 488 882 522 882 q 437 865 454 882 q 420 814 420 848 m 692 814 q 641 661 692 711 q 488 610 591 610 q 336 661 386 610 q 285 814 285 711 q 336 966 285 916 q 488 1017 386 1017 q 641 966 591 1017 q 692 814 692 916 m 313 203 q 330 153 313 170 q 380 136 347 136 q 431 153 414 136 q 448 203 448 170 q 431 254 448 237 q 380 271 414 271 q 330 254 347 271 q 313 203 313 237 m 584 203 q 533 51 584 101 q 380 0 483 0 q 228 51 278 0 q 177 203 177 101 q 228 356 177 306 q 380 407 278 407 q 533 356 483 407 q 584 203 584 306 z "},"ៈ":{"ha":520,"x_min":170,"x_max":520,"o":"m 254 102 q 191 123 212 102 q 170 186 170 144 q 191 250 170 229 q 254 271 212 271 q 318 250 297 271 q 339 186 339 229 q 356 165 339 165 q 407 186 373 165 q 352 123 390 144 q 254 102 313 102 m 368 745 q 304 766 325 745 q 283 829 283 787 q 304 893 283 872 q 368 914 325 914 q 431 892 410 914 q 452 829 452 871 q 469 808 452 808 q 520 829 486 808 q 465 766 503 787 q 368 745 427 745 z "},"៉":{"ha":0,"x_min":-682,"x_max":-216,"o":"m -221 1535 l -273 1254 q -342 1221 -287 1221 q -412 1259 -397 1221 q -420 1293 -420 1276 q -409 1331 -420 1313 q -383 1407 -390 1364 l -355 1560 q -355 1571 -355 1565 q -281 1628 -355 1628 q -216 1569 -216 1628 q -221 1535 -216 1554 m -677 1314 l -626 1594 q -557 1628 -612 1628 q -486 1590 -502 1628 q -479 1556 -479 1572 q -490 1517 -479 1535 q -515 1442 -509 1484 l -544 1289 q -543 1278 -543 1283 q -617 1221 -543 1221 q -682 1280 -682 1221 q -677 1314 -682 1295 z "},"៊":{"ha":0,"x_min":-1017,"x_max":0,"o":"m -886 1086 q -893 1085 -889 1085 q -962 1115 -918 1085 q -1017 1229 -1017 1150 q -941 1343 -1017 1308 q -786 1379 -865 1379 q -618 1334 -694 1379 q -504 1289 -542 1289 q -402 1330 -466 1289 q -253 1372 -338 1372 q -83 1293 -167 1372 l -41 1253 q 0 1179 0 1213 q -41 1133 0 1139 q -56 1133 -50 1133 q -110 1152 -88 1133 q -173 1206 -136 1177 q -257 1236 -209 1236 q -342 1211 -305 1236 q -508 1153 -453 1153 q -635 1198 -562 1153 q -783 1243 -709 1243 q -859 1236 -836 1243 q -882 1199 -882 1228 q -859 1162 -882 1171 q -845 1141 -845 1156 q -849 1123 -845 1133 q -886 1086 -860 1092 z "},"់":{"ha":0,"x_min":-542,"x_max":-338,"o":"m -537 1314 l -486 1594 q -416 1628 -471 1628 q -346 1590 -361 1628 q -338 1556 -338 1572 q -349 1517 -338 1535 q -375 1442 -368 1484 l -404 1289 q -403 1278 -403 1283 q -477 1221 -403 1221 q -542 1280 -542 1221 q -537 1314 -542 1295 z "},"៌":{"ha":0,"x_min":-720,"x_max":-170,"o":"m -529 1265 q -600 1220 -558 1253 q -675 1187 -634 1187 q -720 1246 -715 1187 q -720 1257 -720 1252 q -681 1337 -720 1309 l -617 1380 q -477 1497 -500 1446 q -454 1611 -454 1548 q -386 1695 -454 1695 q -318 1611 -318 1695 q -339 1481 -318 1527 q -412 1377 -360 1435 l -395 1377 q -283 1360 -335 1377 q -183 1278 -224 1340 q -170 1236 -170 1254 q -199 1196 -170 1210 q -246 1183 -224 1183 q -256 1184 -251 1183 q -303 1221 -283 1187 q -413 1278 -333 1272 q -529 1265 -500 1278 z "},"៍":{"ha":0,"x_min":-746,"x_max":136,"o":"m -323 1187 l -323 1186 q -391 1119 -323 1119 q -633 1190 -519 1119 q -739 1301 -718 1240 q -746 1343 -746 1322 q -718 1448 -746 1386 q -590 1530 -673 1529 q -388 1470 -507 1530 q -366 1463 -377 1463 q -309 1510 -337 1463 q -170 1657 -218 1621 q -71 1695 -121 1693 l -66 1695 q 27 1672 -17 1695 q 117 1598 73 1648 q 136 1559 136 1578 q 92 1499 136 1513 q 69 1496 80 1496 q 15 1522 39 1496 q -75 1559 -25 1559 l -78 1559 q -222 1424 -130 1558 q -321 1331 -267 1351 q -361 1324 -340 1324 q -438 1345 -398 1324 q -544 1385 -496 1376 q -566 1389 -555 1389 q -595 1375 -585 1389 q -602 1357 -602 1367 q -589 1327 -602 1343 q -519 1277 -566 1299 q -391 1255 -472 1255 q -323 1187 -324 1255 z "},"៎":{"ha":0,"x_min":-675,"x_max":-209,"o":"m -383 1379 l -401 1264 q -479 1202 -411 1206 q -485 1202 -482 1202 q -537 1257 -537 1202 q -535 1282 -537 1269 l -517 1394 l -621 1413 q -675 1482 -675 1423 l -675 1493 q -675 1503 -675 1498 q -622 1543 -668 1543 q -596 1540 -610 1543 l -496 1523 l -481 1630 q -402 1695 -471 1691 l -396 1695 q -344 1643 -344 1695 q -346 1619 -344 1632 l -364 1507 l -269 1490 q -209 1428 -210 1480 q -210 1415 -209 1422 q -272 1360 -220 1360 q -292 1362 -281 1360 l -383 1379 z "},"៏":{"ha":0,"x_min":-746,"x_max":201,"o":"m -195 1230 q -299 1112 -220 1112 q -441 1181 -344 1112 q -499 1206 -476 1206 q -524 1195 -515 1206 q -684 1112 -597 1112 q -741 1140 -731 1112 q -746 1173 -746 1154 q -740 1225 -746 1196 l -705 1426 q -606 1550 -685 1518 q -517 1566 -566 1566 q -425 1552 -474 1566 l -307 1520 q -288 1518 -297 1518 q -195 1571 -242 1518 q -106 1657 -138 1636 q -7 1695 -58 1693 l -1 1695 q 92 1672 47 1695 q 183 1598 139 1648 q 201 1559 201 1578 q 157 1513 201 1540 q 122 1501 138 1501 q 80 1522 99 1501 q 3 1559 52 1559 l 0 1559 q -106 1487 -44 1559 q -224 1394 -169 1414 q -286 1383 -254 1383 q -348 1392 -316 1383 l -456 1423 q -500 1430 -481 1430 q -534 1423 -519 1430 q -571 1370 -563 1409 l -585 1309 q -495 1350 -543 1350 l -489 1350 q -371 1300 -437 1348 l -327 1268 q -270 1315 -321 1315 q -192 1262 -192 1315 q -193 1251 -192 1257 l -195 1230 z "},"័":{"ha":0,"x_min":-678,"x_max":68,"o":"m -502 1492 q -381 1461 -424 1492 q -339 1373 -339 1430 q -424 1322 -339 1322 q -475 1356 -475 1322 q -541 1322 -541 1356 q -507 1272 -541 1289 q -346 1255 -473 1255 q -144 1289 -220 1255 q -68 1431 -68 1322 q -89 1510 -68 1480 q -184 1557 -109 1540 q -233 1626 -233 1568 q -231 1653 -233 1638 q -180 1691 -220 1691 q -155 1688 -169 1691 q 12 1592 -43 1663 q 68 1431 68 1521 q -34 1195 68 1272 q -346 1119 -136 1119 q -582 1161 -485 1119 q -678 1322 -678 1204 q -629 1448 -678 1404 q -502 1492 -580 1492 z "},"៑":{"ha":0,"x_min":-949,"x_max":-136,"o":"m -203 1221 q -136 1170 -136 1221 q -203 1119 -136 1119 l -875 1119 q -949 1170 -949 1119 q -875 1221 -949 1221 l -203 1221 z "},"្":{"ha":0,"x_min":-627,"x_max":-356,"o":"m -356 -305 l -458 -305 l -458 -407 l -526 -407 l -526 -305 l -627 -305 l -627 -237 l -526 -237 l -526 -136 l -458 -136 l -458 -237 l -356 -237 l -356 -305 z "},"៓":{"ha":0,"x_min":-661,"x_max":-322,"o":"m -593 1255 q -568 1204 -593 1221 q -492 1187 -543 1187 q -415 1204 -441 1187 q -390 1255 -390 1221 q -415 1305 -390 1289 q -492 1322 -441 1322 q -568 1305 -543 1322 q -593 1255 -593 1289 m -322 1255 q -365 1153 -322 1187 q -492 1119 -407 1119 q -618 1153 -576 1119 q -661 1255 -661 1187 q -618 1356 -661 1322 q -492 1390 -576 1390 q -365 1356 -407 1390 q -322 1255 -322 1322 z "},"។":{"ha":949,"x_min":203,"x_max":939,"o":"m 407 1017 q 475 949 475 1017 q 407 882 475 882 q 339 814 339 882 q 441 746 339 746 q 676 794 576 746 q 801 956 777 843 q 877 1017 814 1017 q 939 974 939 1017 q 935 943 939 960 l 748 58 q 667 -1 735 -1 q 610 50 610 -1 q 614 77 610 62 l 745 697 q 441 610 623 610 q 256 661 309 610 q 203 814 203 712 q 254 966 203 916 q 407 1017 305 1017 z "},"៕":{"ha":1170,"x_min":203,"x_max":1170,"o":"m 407 1017 q 475 949 475 1017 q 407 882 475 882 q 339 814 339 882 q 441 746 339 746 q 676 794 576 746 q 801 956 777 843 q 877 1017 814 1017 q 939 974 939 1017 q 935 943 939 960 l 748 58 q 667 -1 735 -1 q 610 50 610 -1 q 614 77 610 62 l 745 697 q 441 610 623 610 q 256 661 309 610 q 203 814 203 712 q 254 966 203 916 q 407 1017 305 1017 m 1031 956 q 1107 1017 1044 1017 q 1170 974 1170 1017 q 1166 943 1170 960 l 979 58 q 897 -1 966 -1 q 841 50 841 -1 q 844 77 841 62 l 1031 956 z "},"៖":{"ha":692,"x_min":177,"x_max":692,"o":"m 420 848 q 437 822 420 831 q 488 814 454 814 q 539 822 522 814 q 556 848 556 831 q 539 873 556 865 q 488 882 522 882 q 437 873 454 882 q 420 848 420 865 m 692 848 q 641 721 692 762 q 488 678 591 678 q 336 721 386 678 q 285 848 285 762 q 336 975 285 933 q 488 1017 386 1017 q 641 975 591 1017 q 692 848 692 933 m 313 170 q 330 144 313 153 q 380 136 347 136 q 431 144 414 136 q 448 170 448 153 q 431 195 448 186 q 380 203 414 203 q 330 195 347 203 q 313 170 313 186 m 584 170 q 533 43 584 84 q 380 0 483 0 q 228 43 278 0 q 177 170 177 84 q 228 297 177 255 q 380 339 278 339 q 533 297 483 339 q 584 170 584 255 m 279 441 q 177 509 177 441 q 279 576 177 576 l 590 576 q 692 509 692 576 q 590 441 692 441 l 279 441 z "},"ៗ":{"ha":1051,"x_min":136,"x_max":1034,"o":"m 203 68 q 298 136 203 136 l 515 136 q 672 153 614 136 q 744 238 729 170 l 880 884 q 618 712 695 712 q 460 797 543 712 q 339 882 378 882 q 281 831 299 882 q 277 795 277 810 q 318 746 277 746 q 373 678 373 746 q 323 610 373 610 q 183 666 231 610 q 136 771 136 721 q 143 831 136 798 q 220 970 163 924 q 340 1017 278 1017 q 497 932 415 1017 q 624 848 578 848 q 826 986 669 848 q 960 1017 859 1017 q 1034 974 1034 1017 q 1030 943 1034 960 l 876 212 q 755 53 854 106 q 515 0 656 0 l 298 0 q 203 68 203 0 z "},"៘":{"ha":3652,"x_min":203,"x_max":3652,"o":"m 407 1017 q 475 949 475 1017 q 407 882 475 882 q 339 814 339 882 q 441 746 339 746 q 676 794 576 746 q 801 956 777 843 q 877 1017 814 1017 q 939 974 939 1017 q 935 943 939 960 l 748 58 q 667 -1 735 -1 q 610 50 610 -1 q 614 77 610 62 l 745 697 q 441 610 623 610 q 256 661 309 610 q 203 814 203 712 q 254 966 203 916 q 407 1017 305 1017 m 1936 576 q 1943 648 1943 614 q 1607 882 1943 882 q 1432 806 1446 882 l 1347 315 q 1337 214 1337 256 q 1370 126 1337 140 q 1404 118 1389 118 q 1448 142 1432 118 q 1460 181 1460 164 q 1412 224 1460 214 q 1351 272 1351 230 q 1354 292 1351 281 q 1407 334 1364 334 q 1447 327 1425 334 q 1581 193 1581 292 q 1546 75 1581 142 q 1406 0 1493 0 q 1316 18 1365 0 q 1202 224 1202 57 q 1214 344 1202 277 l 1299 831 q 1607 1017 1332 1017 q 2081 665 2081 1017 q 2070 551 2081 612 l 2030 322 q 2026 278 2026 299 q 2228 136 2026 136 q 2570 409 2521 136 q 2599 648 2599 576 q 2587 701 2599 693 l 2435 796 q 2393 873 2393 822 q 2403 926 2393 897 q 2535 1017 2431 1017 l 2713 1017 q 2848 949 2848 1017 q 2713 882 2848 882 l 2528 882 l 2647 810 q 2726 596 2726 763 q 2705 393 2726 510 q 2228 0 2635 0 q 1889 269 1889 0 q 1896 350 1889 307 l 1936 576 m 3120 1017 q 3187 949 3187 1017 q 3120 882 3187 882 q 3052 814 3052 882 q 3153 746 3052 746 q 3389 794 3289 746 q 3514 956 3489 843 q 3590 1017 3526 1017 q 3652 974 3652 1017 q 3648 943 3652 960 l 3461 58 q 3379 -1 3448 -1 q 3323 50 3323 -1 q 3326 77 3323 62 l 3458 697 q 3153 610 3336 610 q 2969 661 3021 610 q 2916 814 2916 712 q 2967 966 2916 916 q 3120 1017 3018 1017 z "},"៙":{"ha":1051,"x_min":203,"x_max":848,"o":"m 526 0 q 284 119 365 0 q 203 475 203 237 q 284 831 203 712 q 526 949 365 949 q 767 831 686 949 q 848 475 848 712 q 767 119 848 237 q 526 0 686 0 m 526 870 q 345 772 405 870 q 284 475 284 673 q 345 178 284 277 q 526 79 405 79 q 707 178 646 79 q 767 475 767 277 q 707 772 767 673 q 526 870 646 870 m 526 158 q 405 237 445 158 q 365 475 365 317 q 405 712 365 633 q 526 791 445 791 q 646 712 606 791 q 686 475 686 633 q 646 237 686 317 q 526 158 606 158 m 526 712 q 465 653 486 712 q 445 475 445 593 q 465 297 445 356 q 526 237 486 237 q 586 297 566 237 q 606 475 606 356 q 586 653 606 593 q 526 712 566 712 z "},"៚":{"ha":2658,"x_min":170,"x_max":2489,"o":"m 1981 365 q 1970 347 1970 353 q 1971 344 1970 345 q 1979 338 1974 338 q 1988 342 1983 338 q 1988 345 1988 343 q 1981 365 1988 350 m 1080 664 q 1122 753 1122 728 q 1117 767 1122 762 q 1085 783 1101 783 q 1048 760 1066 783 q 1044 744 1044 753 q 1072 676 1044 720 q 1080 664 1076 670 m 1269 298 q 1239 243 1239 260 q 1242 235 1239 238 q 1270 220 1255 220 q 1295 231 1282 220 q 1299 239 1299 233 q 1269 298 1299 257 m 1499 690 q 1527 737 1527 724 q 1525 742 1527 740 q 1503 755 1515 755 q 1482 747 1493 755 q 1479 739 1479 745 q 1499 690 1479 724 m 1653 317 q 1639 298 1639 302 q 1640 296 1639 297 q 1651 291 1645 291 q 1662 294 1656 291 q 1663 297 1663 295 q 1653 317 1663 302 m 1887 664 q 1904 685 1904 681 q 1903 686 1904 686 q 1895 689 1900 689 q 1883 683 1889 689 q 1881 680 1881 682 q 1887 664 1881 674 m 1976 538 q 2005 500 1992 519 q 2064 521 2032 513 q 2245 543 2142 543 l 2424 543 q 2489 492 2489 543 q 2422 441 2489 441 l 2245 441 q 2054 418 2099 441 q 2074 367 2068 391 q 2079 331 2079 347 q 2047 264 2079 289 q 1973 235 2008 235 q 1963 236 1968 235 q 1888 284 1923 241 q 1862 351 1862 317 q 1864 371 1862 361 q 1924 452 1874 412 q 1902 484 1914 467 q 1880 513 1890 498 q 1811 454 1849 484 q 1721 379 1758 410 q 1742 331 1734 353 q 1753 275 1753 300 q 1725 215 1753 237 q 1650 186 1685 186 q 1638 186 1644 186 q 1561 238 1596 193 q 1546 285 1546 258 q 1569 358 1546 317 q 1597 398 1581 377 q 1539 475 1573 431 l 1492 533 q 1416 452 1459 495 q 1329 366 1365 404 q 1374 285 1358 321 q 1390 219 1390 248 q 1358 155 1390 178 q 1265 117 1310 117 q 1257 118 1261 117 q 1166 172 1208 122 q 1145 231 1145 197 q 1166 311 1145 266 q 1206 376 1181 341 q 1139 449 1177 408 q 1089 503 1112 477 q 981 362 1044 438 q 697 91 829 181 q 451 0 564 0 q 240 127 311 0 q 170 509 170 254 q 250 890 170 763 q 492 1017 331 1017 q 734 950 653 1017 q 814 749 814 883 q 755 528 814 611 q 579 414 696 444 q 553 410 565 410 q 509 446 519 410 q 506 464 506 456 q 553 511 506 498 q 672 590 632 532 q 712 744 712 648 q 657 872 712 829 q 492 916 602 916 q 327 814 382 916 q 272 513 272 713 l 272 509 q 317 203 272 305 q 452 102 361 102 q 651 180 541 102 q 892 416 761 259 q 1025 585 973 514 q 971 682 989 637 q 954 759 954 724 q 983 836 954 804 q 1083 895 1033 894 l 1084 895 q 1183 838 1133 895 q 1208 766 1208 810 q 1182 663 1208 722 q 1142 585 1166 627 q 1206 514 1171 552 q 1265 449 1238 480 q 1340 528 1298 486 q 1434 619 1395 579 q 1397 704 1412 659 q 1386 762 1386 736 q 1419 833 1386 808 q 1506 867 1466 867 q 1516 867 1511 867 q 1600 812 1562 861 q 1618 758 1618 789 q 1593 673 1618 722 q 1555 611 1578 644 q 1610 541 1579 580 q 1664 470 1640 504 q 1735 534 1695 500 q 1820 604 1785 574 q 1796 661 1804 635 q 1790 701 1790 682 q 1822 764 1790 741 q 1895 793 1860 793 q 1907 792 1901 793 q 1984 741 1948 787 q 2001 694 2001 721 q 1977 624 2001 663 q 1944 579 1964 603 q 1976 538 1959 561 z "},"៛":{"ha":621,"x_min":68,"x_max":621,"o":"m 260 203 l 251 203 q 203 170 203 203 q 226 136 203 136 q 254 171 248 136 l 260 203 m 439 441 q 431 393 435 418 l 388 146 q 226 0 362 0 q 68 170 68 0 q 251 339 68 339 q 284 338 268 339 l 296 409 q 302 441 299 425 l 208 441 q 106 509 106 441 q 208 576 106 576 l 321 576 q 326 647 326 618 q 314 701 326 693 l 162 796 q 120 873 120 822 q 130 926 120 897 q 262 1017 157 1017 l 439 1017 q 575 949 575 1017 q 439 882 575 882 l 254 882 l 374 810 q 452 596 452 763 l 452 576 l 519 576 q 621 509 621 576 q 519 441 621 441 l 439 441 z "},"០":{"ha":1017,"x_min":177,"x_max":1007,"o":"m 388 975 q 440 996 388 975 q 629 1017 492 1017 q 886 900 765 1017 q 1007 628 1007 783 q 990 477 1007 558 q 825 106 935 213 q 549 0 715 0 l 547 0 q 280 70 382 0 q 177 304 177 140 q 231 731 177 463 q 388 975 283 933 m 365 696 q 310 323 310 450 q 343 197 310 224 q 543 135 419 136 q 737 214 667 135 q 853 481 806 294 q 869 620 869 559 q 812 793 869 734 q 607 882 723 882 q 464 857 525 882 q 365 696 403 831 z "},"១":{"ha":1017,"x_min":146,"x_max":954,"o":"m 485 753 q 519 768 503 768 q 554 748 538 768 q 623 627 623 683 q 595 559 623 591 q 389 441 488 442 q 193 574 290 441 q 146 741 146 663 q 151 791 146 766 q 289 954 171 890 q 551 1017 407 1017 q 833 910 694 1017 q 954 695 951 819 l 954 691 q 909 429 954 566 q 619 126 844 252 q 340 0 395 0 q 286 58 286 0 q 326 136 286 136 q 566 247 366 136 q 784 471 731 324 q 816 665 816 574 l 816 676 q 726 835 812 769 q 545 883 653 883 q 366 852 436 883 q 283 764 295 821 q 281 736 281 751 q 311 632 281 690 q 395 577 349 577 q 470 610 441 577 q 486 646 486 628 q 473 682 486 663 q 462 712 462 697 q 485 753 462 733 z "},"២":{"ha":1565,"x_min":-136,"x_max":1415,"o":"m 697 507 l 697 500 q 652 450 697 457 q 634 449 642 449 q 561 501 568 449 q 559 554 559 530 q 595 694 559 652 q 709 747 640 747 q 844 706 777 747 q 977 583 911 665 q 1085 705 1034 664 q 1183 746 1137 746 q 1274 711 1230 746 q 1359 606 1318 676 q 1411 472 1400 536 q 1415 423 1415 448 q 1404 350 1415 386 l 1367 233 q 1212 59 1331 117 q 892 0 1093 1 q 610 24 731 0 q 416 86 488 48 q 318 193 343 123 q 298 309 298 251 q 298 335 298 322 q 307 549 307 452 q 301 694 307 629 q 245 915 288 840 q 134 1015 202 990 q -62 1047 66 1039 q -136 1119 -136 1053 q -64 1185 -136 1185 q 206 1121 100 1173 q 364 975 312 1069 q 435 719 417 881 q 444 528 444 633 q 437 326 444 434 q 436 310 436 317 q 488 209 436 246 q 644 151 545 168 q 901 135 742 135 l 907 135 q 1134 172 1062 135 q 1240 277 1206 209 l 1267 365 q 1278 437 1278 401 q 1257 532 1278 486 q 1182 610 1219 610 q 1055 481 1145 610 q 979 439 1024 439 q 899 482 933 439 q 742 610 798 610 q 703 585 714 610 q 695 539 695 568 q 697 507 695 524 z "},"៣":{"ha":1805,"x_min":189,"x_max":1706,"o":"m 443 366 q 496 394 467 394 q 537 381 515 394 q 636 286 612 342 q 648 225 648 258 q 635 152 648 191 q 551 38 610 76 q 433 0 492 0 q 342 27 389 0 q 248 111 296 55 q 191 268 199 166 q 189 312 189 289 q 214 516 189 399 q 292 763 245 663 q 401 914 338 862 q 531 991 463 966 q 673 1017 599 1017 q 840 960 753 1017 q 1019 750 927 890 q 1238 947 1140 878 q 1413 1018 1337 1018 q 1548 979 1489 1018 q 1650 865 1607 941 q 1703 699 1693 788 q 1706 637 1706 669 q 1692 507 1706 576 l 1598 58 q 1515 0 1584 0 q 1459 47 1459 0 q 1463 74 1459 60 l 1557 522 q 1571 644 1571 587 q 1569 680 1571 663 q 1533 806 1563 751 q 1480 871 1501 861 q 1414 882 1459 882 q 1294 838 1362 882 q 1131 674 1227 795 q 1068 538 1087 640 l 964 61 q 881 0 949 0 q 826 47 826 0 q 830 75 826 59 l 925 548 q 932 604 932 578 q 909 686 932 652 q 770 858 834 801 q 671 882 725 882 q 564 861 616 882 q 465 802 513 842 q 396 695 416 762 q 349 504 376 629 q 325 311 325 389 l 325 296 q 360 177 328 214 q 434 136 391 136 q 503 178 477 136 q 509 217 509 199 q 505 243 509 231 q 465 287 496 271 q 427 332 427 307 q 443 366 427 348 z "},"៤":{"ha":1191,"x_min":112,"x_max":1050,"o":"m 1023 517 q 996 509 1008 509 q 946 544 968 509 q 899 576 927 576 q 840 553 870 576 q 810 475 810 530 q 909 351 810 439 q 1007 170 1007 267 q 1002 124 1007 147 q 741 -1 975 -1 l 639 0 q 237 87 355 0 q 154 277 154 150 q 168 393 154 330 q 287 697 199 557 q 380 1021 376 838 l 380 1024 q 162 1218 380 1097 q 112 1275 112 1242 q 117 1297 112 1286 q 159 1326 131 1326 q 237 1314 212 1326 q 519 1022 519 1162 q 518 1013 519 1017 q 408 640 508 802 q 299 372 333 526 q 289 289 289 326 q 343 177 289 205 q 642 136 420 136 l 744 136 q 869 178 859 136 q 871 190 871 184 q 818 269 871 220 q 675 477 675 392 q 735 647 675 582 q 898 712 795 712 q 1038 623 987 712 q 1050 554 1050 604 q 1023 517 1050 532 z "},"៥":{"ha":1191,"x_min":172,"x_max":1119,"o":"m 433 916 q 442 947 442 935 q 391 983 442 983 q 339 949 339 983 q 391 916 339 916 l 433 916 m 572 916 q 761 966 685 919 q 838 1169 808 983 q 1051 1356 868 1356 q 1119 1289 1119 1356 q 1050 1221 1119 1221 q 968 1114 988 1221 q 821 850 934 921 q 549 780 707 780 l 522 780 q 519 775 520 778 q 412 616 473 705 q 317 372 351 526 q 309 308 309 337 q 398 177 309 209 q 660 136 513 136 l 795 136 q 886 178 877 136 q 888 190 888 184 q 836 269 888 220 q 692 477 692 392 q 773 627 692 562 q 916 692 853 692 q 1055 603 1004 692 q 1067 565 1067 583 q 1041 514 1067 538 q 1003 495 1021 495 q 964 524 981 495 q 916 555 945 555 q 858 532 888 555 q 827 475 827 509 q 926 351 827 439 q 1025 170 1025 267 q 1019 124 1025 147 q 792 -1 992 -1 l 656 0 q 255 87 372 0 q 172 277 172 150 q 186 393 172 330 q 274 653 216 570 q 366 780 331 736 l 355 780 q 203 949 203 780 q 391 1119 203 1119 q 576 948 576 1119 q 572 916 576 933 z "},"៦":{"ha":1051,"x_min":-68,"x_max":949,"o":"m 336 408 q 363 367 363 385 q 347 340 363 352 q 327 296 327 324 q 350 222 327 265 q 533 136 394 136 q 726 309 638 136 q 813 630 813 515 l 813 632 q 769 730 813 713 q 669 747 724 746 l 667 747 q 513 730 612 747 q 355 712 413 713 q 235 836 296 712 q 132 1074 174 927 q 1 1221 91 1221 q -68 1289 -68 1221 q 1 1356 -68 1356 q 252 1160 203 1356 q 343 906 302 964 q 409 848 385 848 q 519 865 433 848 q 686 881 601 881 l 692 881 q 866 849 781 881 q 949 657 949 817 l 949 654 q 844 246 948 492 q 538 0 739 0 q 236 168 336 1 q 188 309 188 249 q 241 412 188 372 q 285 429 262 429 q 336 408 310 429 z "},"៧":{"ha":1199,"x_min":149,"x_max":1196,"o":"m 316 302 l 290 180 q 286 143 286 158 q 289 121 286 130 q 317 102 295 102 q 380 144 340 102 q 427 226 419 186 q 429 235 429 231 q 416 260 429 249 q 368 286 401 275 l 316 302 m 973 547 q 975 570 975 561 q 970 622 975 587 q 956 691 964 656 q 921 736 948 727 q 869 746 895 746 l 767 623 q 701 585 733 585 q 631 632 669 585 l 564 717 q 469 780 508 780 q 391 647 412 761 l 338 401 l 406 381 q 511 316 481 359 q 532 246 532 286 q 528 208 532 228 q 450 69 513 138 q 317 0 385 0 q 167 51 198 0 q 149 129 149 81 q 157 203 149 161 l 256 661 q 324 822 276 758 q 450 916 373 886 l 468 916 q 634 825 555 916 l 702 742 l 762 812 q 874 882 821 882 q 960 868 928 882 q 1025 804 993 854 l 1051 917 q 1060 989 1060 956 q 1015 1116 1060 1066 q 701 1215 949 1187 q 647 1273 647 1219 q 648 1284 647 1278 q 702 1351 653 1351 q 713 1350 707 1351 q 1128 1195 1035 1321 q 1196 988 1196 1105 q 1185 891 1196 942 l 1008 63 q 985 16 1001 31 q 943 0 968 0 q 873 20 882 0 q 869 45 869 31 q 873 81 869 61 l 973 547 z "},"៨":{"ha":1187,"x_min":156,"x_max":1251,"o":"m 842 408 q 892 429 867 429 q 937 412 915 429 q 1002 315 986 376 q 1010 254 1010 287 q 1000 170 1010 215 q 941 43 981 85 q 838 0 901 0 q 744 43 796 0 q 629 171 692 85 q 496 43 555 85 q 397 -1 438 -1 q 244 67 313 -1 q 159 269 176 135 q 156 334 156 298 q 197 645 156 456 q 318 835 227 789 q 468 881 410 881 l 469 881 q 683 833 528 881 q 797 814 747 814 q 875 906 836 814 l 916 1009 q 1027 1172 956 1123 q 1182 1221 1098 1221 q 1251 1154 1251 1221 q 1183 1086 1251 1086 q 1105 1061 1138 1085 q 983 836 1072 1037 q 800 676 899 676 q 659 703 738 677 q 467 747 505 747 q 391 713 433 746 q 330 606 350 681 q 292 340 292 444 q 295 291 292 313 q 331 159 307 181 q 395 136 356 136 q 542 264 435 136 q 628 306 576 306 l 629 306 q 713 263 682 306 q 843 136 807 136 q 884 216 880 136 l 884 227 q 830 340 884 298 q 814 367 814 352 q 842 408 814 385 z "},"៩":{"ha":1017,"x_min":160,"x_max":1117,"o":"m 660 313 q 711 334 686 334 q 755 317 733 334 q 823 201 823 267 q 802 120 823 163 q 494 0 741 0 l 490 0 q 239 67 307 0 q 162 201 170 135 q 160 233 160 216 q 184 410 160 299 q 406 625 213 551 q 272 816 272 734 q 275 838 272 827 q 375 972 294 928 q 520 1017 456 1017 l 522 1017 q 673 950 585 1017 q 805 882 763 882 q 880 1033 849 882 q 1048 1221 918 1221 q 1117 1154 1117 1221 q 1048 1086 1117 1086 q 979 981 1002 1085 q 808 746 928 746 q 639 815 729 747 q 515 883 549 883 q 449 872 481 882 q 409 827 416 861 q 408 821 408 824 q 460 739 408 788 q 623 648 545 681 l 734 600 q 774 542 774 583 q 770 513 774 529 q 724 467 758 467 q 695 473 711 467 l 583 522 q 544 528 566 528 q 467 513 511 528 q 313 374 334 475 q 296 247 296 292 q 297 228 296 237 q 343 159 301 181 q 497 136 385 136 q 669 171 644 136 q 678 197 678 183 q 648 245 678 220 q 632 272 632 257 q 660 313 632 290 z "},"​":{"ha":0,"x_min":0,"x_max":0,"o":""}}}
